<?xml version="1.0" encoding="UTF-8"?>
<svg version="1.1" xmlns="http://www.w3.org/2000/svg" width="1145" height="341">
<path d="M0 0 C25.82367039 28.05210896 31.06146968 83.85419566 30.26953125 119.90625 C30.23472656 120.73640625 30.19992188 121.5665625 30.1640625 122.421875 C29.62515381 122.27564697 29.08624512 122.12941895 28.53100586 121.97875977 C26.05565614 121.30969612 23.57864353 120.64699874 21.1015625 119.984375 C20.25400391 119.75427734 19.40644531 119.52417969 18.53320312 119.28710938 C-3.53137207 113.40890208 -24.77391082 116.96031002 -46.19384766 123.75854492 C-59.2103266 127.86238328 -74.09906474 128.09061597 -86.59765625 122.09765625 C-90.7052868 119.70101423 -94.3582988 117.00355056 -98.0234375 113.984375 C-100.66963563 111.90759973 -100.66963563 111.90759973 -103.88671875 111.26953125 C-106.03656133 111.52836291 -106.03656133 111.52836291 -108.8359375 112.421875 C-110.34168237 116.82328307 -109.66778445 119.38625918 -107.7109375 123.421875 C-101.05735771 135.51764913 -91.5247724 140.80725942 -78.68359375 145.37890625 C-67.60072219 148.3830958 -56.97039732 148.6780723 -45.5859375 148.546875 C-44.05078715 148.53681589 -42.51563035 148.52769527 -40.98046875 148.51953125 C-37.26548823 148.49777119 -33.55075589 148.46340634 -29.8359375 148.421875 C-33.5690114 152.30765114 -36.58526248 154.53687302 -41.5859375 156.609375 C-43.31070313 157.34220703 -43.31070313 157.34220703 -45.0703125 158.08984375 C-61.86762464 164.03163155 -80.54600625 162.96355736 -96.91796875 156.13671875 C-110.10115758 149.5174673 -118.91975624 138.75221053 -125.5234375 125.859375 C-125.94351074 125.05363037 -126.36358398 124.24788574 -126.79638672 123.41772461 C-129.67985155 117.83200791 -132.38753251 112.1736688 -135.05541992 106.48242188 C-141.58806759 92.54792242 -148.39070101 78.89075849 -160.9609375 69.421875 C-161.52063232 68.99471191 -162.08032715 68.56754883 -162.65698242 68.12744141 C-167.749685 64.32498598 -173.13540285 61.23215861 -178.8359375 58.421875 C-175.92321761 21.01641955 -175.92321761 21.01641955 -164.38671875 8.8359375 C-159.87898669 5.2780391 -154.37964519 4.30112943 -148.8984375 2.984375 C-147.12944092 2.54496582 -147.12944092 2.54496582 -145.32470703 2.09667969 C-30.11575497 -25.88673406 -30.11575497 -25.88673406 0 0 Z M-77.6328125 9.9140625 C-83.90015884 17.0481695 -86.1856724 25.02221616 -86.046875 34.36328125 C-85.07846792 48.40518387 -81.62345279 63.65777644 -71.484375 73.99609375 C-67.91920138 77.07971549 -65.7174891 77.421875 -61.0234375 77.421875 C-53.8663096 76.22453593 -49.30098648 71.37896539 -45.1484375 65.734375 C-37.48852974 54.03560679 -31.0300288 38.81177284 -33.28125 24.61328125 C-35.76142797 15.02040899 -40.68486089 8.1099089 -48.8359375 2.421875 C-59.8902486 -3.7323108 -69.27988034 1.95513658 -77.6328125 9.9140625 Z M-110.2109375 67.921875 C-113.58061867 73.10599987 -113.41154488 78.42733524 -112.8359375 84.421875 C-109.84002506 94.83537789 -100.74800809 100.3891692 -92.01953125 105.72265625 C-86.16580962 108.84703528 -81.39000568 110.1501048 -74.8359375 109.421875 C-71.60961707 107.77988659 -71.60961707 107.77988659 -69.8359375 104.421875 C-67.81235232 93.60554358 -72.39671431 82.66229087 -78.13671875 73.68359375 C-82.59905968 67.74406409 -87.34967426 63.66958554 -94.8359375 62.421875 C-101.00175254 61.7796026 -105.90396198 63.38821656 -110.2109375 67.921875 Z M-53.8359375 84.421875 C-57.40532791 89.88818284 -60.21912103 94.8335599 -60.8359375 101.421875 C-59.30719879 105.39659563 -58.40813253 107.04041165 -54.8359375 109.421875 C-42.69599749 110.94379168 -29.74732607 107.67557268 -19.8359375 100.421875 C-14.49347472 95.41331614 -11.79893764 90.86777869 -11.5234375 83.484375 C-11.64823647 79.06386414 -12.08483419 76.03269809 -14.8359375 72.421875 C-19.72007231 68.59118103 -24.94182088 67.7060647 -31.04296875 67.9921875 C-41.32222732 69.5736119 -47.75336692 76.43392086 -53.8359375 84.421875 Z " fill="#D6B77C" transform="translate(185.8359375,69.578125)"/>
<path d="M0 0 C1.5861724 1.5861724 1.12598542 3.20305121 1.12698364 5.40344238 C1.13121338 6.82953575 1.13121338 6.82953575 1.13552856 8.28443909 C1.13249222 9.86163979 1.13249222 9.86163979 1.12939453 11.47070312 C1.13202301 13.12174294 1.13202301 13.12174294 1.13470459 14.80613708 C1.13912568 18.46452384 1.13618421 22.12286271 1.1328125 25.78125 C1.13348547 28.31091318 1.13445543 30.8405763 1.13571167 33.37023926 C1.13718899 38.67993849 1.13512758 43.98962037 1.13037109 49.29931641 C1.12492851 55.44605958 1.12669118 61.59276959 1.1321975 67.73951197 C1.1372744 73.64217564 1.13674706 79.54482896 1.13381577 85.44749451 C1.13314624 87.96422836 1.1339758 90.48096305 1.13629532 92.99769592 C1.13882033 96.50825275 1.13498338 100.0187449 1.12939453 103.52929688 C1.13141876 104.58076401 1.13344299 105.63223114 1.13552856 106.71556091 C1.13270874 107.66628983 1.12988892 108.61701874 1.12698364 109.59655762 C1.1264181 110.84317799 1.1264181 110.84317799 1.12584114 112.1149826 C1 114 1 114 0 115 C-6.38054116 116.04368481 -12.66928438 116.18314392 -19.125 116.1875 C-20.56939453 116.20586914 -20.56939453 116.20586914 -22.04296875 116.22460938 C-23.44869141 116.22750977 -23.44869141 116.22750977 -24.8828125 116.23046875 C-25.72215332 116.23457764 -26.56149414 116.23868652 -27.42626953 116.24291992 C-30.73437299 115.93068667 -33.00069758 115.50064403 -36 114 C-37.86396372 111.58129499 -39.06214688 108.92389458 -40.3203125 106.15234375 C-40.70141678 105.35656921 -41.08252106 104.56079468 -41.47517395 103.74090576 C-42.7112463 101.14849593 -43.91813568 98.54361779 -45.125 95.9375 C-45.96888614 94.15315369 -46.81467943 92.36970812 -47.66235352 90.5871582 C-49.34542402 87.04129179 -51.01784513 83.49072516 -52.68115234 79.93554688 C-54.67731234 75.67486143 -56.70938427 71.43318798 -58.76953125 67.203125 C-59.31399902 66.08301025 -59.8584668 64.96289551 -60.41943359 63.80883789 C-60.92039551 62.77879639 -61.42135742 61.74875488 -61.9375 60.6875 C-65.24394008 53.88838188 -68.28469467 47.05789173 -71 40 C-70.96970703 40.74419189 -70.93941406 41.48838379 -70.90820312 42.25512695 C-69.95592175 66.50716977 -69.8880303 90.73185883 -70 115 C-73.29526351 115.73487551 -76.34833453 116.12797179 -79.72265625 116.1328125 C-80.59083984 116.13410156 -81.45902344 116.13539063 -82.35351562 116.13671875 C-83.24748047 116.13285156 -84.14144531 116.12898438 -85.0625 116.125 C-86.40924805 116.13080078 -86.40924805 116.13080078 -87.78320312 116.13671875 C-88.65009766 116.13542969 -89.51699219 116.13414062 -90.41015625 116.1328125 C-91.19527588 116.13168457 -91.98039551 116.13055664 -92.78930664 116.12939453 C-95 116 -95 116 -99 115 C-99 77.71 -99 40.42 -99 2 C-94.60455555 1.26742592 -90.99241898 0.87175828 -86.61328125 0.8671875 C-85.42798828 0.86589844 -84.24269531 0.86460938 -83.02148438 0.86328125 C-81.79751953 0.86714844 -80.57355469 0.87101562 -79.3125 0.875 C-78.07693359 0.87113281 -76.84136719 0.86726563 -75.56835938 0.86328125 C-74.38693359 0.86457031 -73.20550781 0.86585937 -71.98828125 0.8671875 C-70.37240112 0.86887939 -70.37240112 0.86887939 -68.72387695 0.87060547 C-66 1 -66 1 -63 2 C-61.75265865 4.11208363 -60.69390207 6.15123305 -59.6640625 8.3671875 C-59.34830765 9.02518845 -59.0325528 9.68318939 -58.70722961 10.36112976 C-57.67015386 12.52795613 -56.64758094 14.7013005 -55.625 16.875 C-54.90924368 18.37797995 -54.19251933 19.88049925 -53.47485352 21.38256836 C-52.01421119 24.44246755 -50.55875198 27.50475263 -49.10693359 30.56884766 C-47.19320903 34.6021217 -45.2534179 38.62216462 -43.30078125 42.63671875 C-42.73085449 43.81057129 -42.16092773 44.98442383 -41.57373047 46.19384766 C-40.52566091 48.35160112 -39.47659917 50.50887311 -38.42626953 52.66552734 C-34.39360516 61.01515017 -30.67519496 69.48877224 -27 78 C-27.06058594 76.85748779 -27.12117187 75.71497559 -27.18359375 74.5378418 C-27.41222756 70.20101606 -27.6342393 65.86387009 -27.85449219 61.52661133 C-27.9497586 59.66779744 -28.04669924 57.80906842 -28.14550781 55.95043945 C-28.66253154 46.20348709 -29.09295422 36.46915793 -29.125 26.70703125 C-29.13188843 25.58659676 -29.13188843 25.58659676 -29.13891602 24.44352722 C-29.09493967 8.80257018 -29.09493967 8.80257018 -24 3 C-17.27217693 -0.92456345 -7.56768121 -0.45219888 0 0 Z " fill="#1C453E" transform="translate(597,84)"/>
<path d="M0 0 C0.98905838 -0.01283524 1.97811676 -0.02567047 2.99714661 -0.03889465 C4.05858383 -0.04628159 5.12002106 -0.05366852 6.21362305 -0.0612793 C7.32279587 -0.06935104 8.43196869 -0.07742279 9.57475281 -0.08573914 C11.92579599 -0.09956037 14.27685906 -0.11029128 16.62792969 -0.11816406 C19.00657121 -0.12962545 21.38518822 -0.14998312 23.76367188 -0.1796875 C43.48237054 -0.42570737 62.60822908 -0.25970216 77.80737305 13.91918945 C89.02551931 25.94903832 91.09962335 41.45141426 91.1628418 57.17700195 C91.1834668 58.42868164 91.2040918 59.68036133 91.2253418 60.9699707 C91.28837433 76.17656826 88.15406551 90.36575328 77.8503418 102.05200195 C55.48880588 122.29348255 15.83440852 115.10277219 -10.0871582 114.17700195 C-10.0871582 76.88700195 -10.0871582 39.59700195 -10.0871582 1.17700195 C-6.43741892 0.4470541 -3.63065143 0.04134705 0 0 Z M20.9128418 24.17700195 C20.9128418 45.95700195 20.9128418 67.73700195 20.9128418 90.17700195 C41.12398741 91.81678514 41.12398741 91.81678514 50.9128418 86.17700195 C52.97806262 84.23929485 52.97806262 84.23929485 54.2878418 81.98950195 C54.74932617 81.29469727 55.21081055 80.59989258 55.6862793 79.8840332 C58.89052236 72.81224836 59.27432978 65.4686207 59.2253418 57.80200195 C59.21970215 56.8787915 59.2140625 55.95558105 59.20825195 55.00439453 C59.02369685 44.64281347 57.56079457 35.73213976 49.9128418 28.17700195 C40.80636324 22.41576042 31.8920049 24.17700195 20.9128418 24.17700195 Z " fill="#1C453E" transform="translate(279.087158203125,84.822998046875)"/>
<path d="M0 0 C0.94894135 -0.01283524 1.89788269 -0.02567047 2.87557983 -0.03889465 C4.39437241 -0.04997505 4.39437241 -0.04997505 5.94384766 -0.0612793 C7.00721344 -0.06935104 8.07057922 -0.07742279 9.16616821 -0.08573914 C11.41707753 -0.09954442 13.66800746 -0.1102824 15.91894531 -0.11816406 C18.19374844 -0.12963013 20.46852582 -0.14999548 22.74316406 -0.1796875 C58.70849079 -0.64843612 58.70849079 -0.64843612 71.74853516 11.87231445 C78.45315818 19.13023161 80.39607636 27.49330621 80.25244141 37.20825195 C79.39537669 46.64838508 75.09204246 54.01404913 67.98291016 60.17700195 C65.3476204 61.83526251 62.87803182 62.98793412 59.98291016 64.17700195 C60.53978516 64.73387695 61.09666016 65.29075195 61.67041016 65.86450195 C62.43353516 66.62762695 63.19666016 67.39075195 63.98291016 68.17700195 C64.76666016 68.83700195 65.55041016 69.49700195 66.35791016 70.17700195 C70.27920071 74.65847688 72.44678894 79.82099771 74.98291016 85.17700195 C76.34396259 87.99646973 77.72367013 90.80636163 79.10791016 93.61450195 C79.43251221 94.28843994 79.75711426 94.96237793 80.09155273 95.65673828 C82.01509189 99.56485807 84.10715894 102.86030222 86.98291016 106.17700195 C81.72235484 112.09512668 76.35668769 115.11576071 68.42041016 116.05200195 C62.59323701 116.37439051 58.08179791 115.99559309 53.52587891 112.0480957 C50.72864635 108.88992992 48.94235003 105.64729495 47.17041016 101.86450195 C46.48291348 100.44913575 45.79541337 99.03377122 45.10791016 97.6184082 C44.3991222 96.13815706 43.69079601 94.65768472 42.98291016 93.17700195 C41.55714529 90.21281133 40.11718262 87.25598382 38.67041016 84.30200195 C38.18254028 83.27659302 38.18254028 83.27659302 37.68481445 82.23046875 C36.05693341 78.90495845 35.13087893 77.2756478 31.98291016 75.17700195 C28.02291016 74.84700195 24.06291016 74.51700195 19.98291016 74.17700195 C19.98291016 87.37700195 19.98291016 100.57700195 19.98291016 114.17700195 C16.36453617 114.90067675 13.66179774 115.30489368 10.07666016 115.30981445 C8.71347656 115.31174805 8.71347656 115.31174805 7.32275391 115.3137207 C6.38560547 115.30985352 5.44845703 115.30598633 4.48291016 115.30200195 C3.0771875 115.30780273 3.0771875 115.30780273 1.64306641 115.3137207 C0.73427734 115.31243164 -0.17451172 115.31114258 -1.11083984 115.30981445 C-1.93261719 115.30868652 -2.75439453 115.30755859 -3.60107422 115.30639648 C-6.01708984 115.17700195 -6.01708984 115.17700195 -11.01708984 114.17700195 C-11.01708984 76.88700195 -11.01708984 39.59700195 -11.01708984 1.17700195 C-7.08457246 0.52158239 -3.88210078 0.04622956 0 0 Z M19.98291016 23.17700195 C19.98291016 32.08700195 19.98291016 40.99700195 19.98291016 50.17700195 C22.99416016 50.09450195 26.00541016 50.01200195 29.10791016 49.92700195 C30.04521973 49.91121094 30.9825293 49.89541992 31.94824219 49.87915039 C37.37380379 49.6595856 40.72724771 48.84842369 44.98291016 45.17700195 C47.19474554 41.39547695 47.99732844 38.99884403 47.92041016 34.61450195 C46.85867412 30.72146984 45.57230712 28.26989277 42.98291016 25.17700195 C38.39728919 22.59269564 33.77189692 22.94812449 28.67041016 23.05200195 C24.37009766 23.11387695 24.37009766 23.11387695 19.98291016 23.17700195 Z " fill="#1C453E" transform="translate(917.01708984375,84.822998046875)"/>
<path d="M0 0 C1.20269531 -0.00128906 2.40539062 -0.00257812 3.64453125 -0.00390625 C4.90652344 -0.00003906 6.16851563 0.00382812 7.46875 0.0078125 C9.36173828 0.00201172 9.36173828 0.00201172 11.29296875 -0.00390625 C12.49566406 -0.00261719 13.69835937 -0.00132813 14.9375 0 C16.04544922 0.00112793 17.15339844 0.00225586 18.29492188 0.00341797 C20.96875 0.1328125 20.96875 0.1328125 22.96875 1.1328125 C22.96875 14.9928125 22.96875 28.8528125 22.96875 43.1328125 C30.63885501 42.0335689 30.63885501 42.0335689 33.25048828 38.47827148 C33.84071777 37.37298096 34.43094727 36.26769043 35.0390625 35.12890625 C35.3686496 34.53159195 35.69823669 33.93427765 36.03781128 33.31886292 C37.08184653 31.41520612 38.08842576 29.49464526 39.09375 27.5703125 C40.11080974 25.68117607 41.13532254 23.79622486 42.1605835 21.91152954 C42.82597602 20.68805478 43.4889689 19.4632717 44.1494751 18.2371521 C52.85463674 2.17085025 52.85463674 2.17085025 58.96875 0.1328125 C62.75605343 -0.124403 66.54863486 -0.09853829 70.34375 -0.1171875 C71.3853125 -0.1378125 72.426875 -0.1584375 73.5 -0.1796875 C82.95341265 -0.22804255 82.95341265 -0.22804255 86.96875 3.1328125 C67.08109459 38.34177344 67.08109459 38.34177344 57.96875 50.1328125 C57.30875 51.1228125 56.64875 52.1128125 55.96875 53.1328125 C57.020625 53.225625 57.020625 53.225625 58.09375 53.3203125 C62.89902084 54.67832382 65.74522321 57.19964445 68.36499023 61.33886719 C72.78805536 69.45253479 76.3626835 77.85803511 79.86962891 86.39697266 C80.62759072 88.23623602 81.39571468 90.0713011 82.1640625 91.90625 C82.60766113 92.98310059 83.05125977 94.05995117 83.50830078 95.16943359 C85.00599883 98.20839362 86.83526464 100.51862211 88.96875 103.1328125 C88.96875 103.7928125 88.96875 104.4528125 88.96875 105.1328125 C89.62875 105.4628125 90.28875 105.7928125 90.96875 106.1328125 C86.20686636 111.66274189 81.05195654 114.69270641 73.70703125 115.484375 C62.48264145 115.76594464 62.48264145 115.76594464 57.96875 112.1328125 C52.44999151 105.31308394 49.45592859 97.49733466 46.34375 89.3828125 C45.42209822 86.98907802 44.49268077 84.59831585 43.5546875 82.2109375 C43.1529834 81.16325195 42.7512793 80.11556641 42.33740234 79.03613281 C40.37267549 74.86836048 38.42698575 71.82878865 34.21875 69.8203125 C30.21793716 68.85686771 30.21793716 68.85686771 22.96875 69.1328125 C22.96875 83.9828125 22.96875 98.8328125 22.96875 114.1328125 C19.35037601 114.8564873 16.64763758 115.26070422 13.0625 115.265625 C11.69931641 115.26755859 11.69931641 115.26755859 10.30859375 115.26953125 C9.37144531 115.26566406 8.43429687 115.26179688 7.46875 115.2578125 C6.06302734 115.26361328 6.06302734 115.26361328 4.62890625 115.26953125 C3.72011719 115.26824219 2.81132813 115.26695312 1.875 115.265625 C1.05322266 115.26449707 0.23144531 115.26336914 -0.61523438 115.26220703 C-3.03125 115.1328125 -3.03125 115.1328125 -8.03125 114.1328125 C-8.03125 76.8428125 -8.03125 39.5528125 -8.03125 1.1328125 C-5.28600448 -0.23981026 -3.06905705 0.0031244 0 0 Z " fill="#1C453E" transform="translate(744.03125,84.8671875)"/>
<path d="M0 0 C0.67671753 -0.00095673 1.35343506 -0.00191345 2.05065918 -0.00289917 C3.47957451 -0.00357882 4.90849296 -0.00173951 6.33740234 0.00244141 C8.5231826 0.00779275 10.70875738 0.00248922 12.89453125 -0.00390625 C14.28385462 -0.00324543 15.67317786 -0.00196419 17.0625 0 C18.32642578 0.00112793 19.59035156 0.00225586 20.89257812 0.00341797 C24.03125 0.1328125 24.03125 0.1328125 27.03125 1.1328125 C28.05964607 3.38716392 28.87543891 5.52771 29.6484375 7.87109375 C29.89801712 8.59491745 30.14759674 9.31874115 30.40473938 10.0644989 C31.24930682 12.52123415 32.07737189 14.9832438 32.90625 17.4453125 C33.50297469 19.18860977 34.10107608 20.9314363 34.70043945 22.67382812 C35.68826009 25.54678703 36.67483612 28.42013667 37.65724182 31.29495239 C41.73806431 43.23491405 45.91399955 55.14152766 50.08742142 67.04934788 C51.50118498 71.08322636 52.91298274 75.11778408 54.32267094 79.15308857 C54.99833945 81.08709992 55.67441077 83.02096995 56.35063171 84.95478821 C57.18343497 87.33648596 58.01567566 89.71838053 58.84724426 92.10050964 C59.22273911 93.17335709 59.59823395 94.24620453 59.98510742 95.3515625 C60.5092775 96.85009766 60.5092775 96.85009766 61.04403687 98.37890625 C61.92162353 100.82700111 62.85238704 103.24487891 63.8059082 105.6640625 C65.03125 109.1328125 65.03125 109.1328125 65.03125 113.1328125 C56.21859637 116.13712624 45.88421099 117.73957439 37.03125 114.1328125 C31.8271574 110.43212443 29.85301128 105.07139707 28.03125 99.1328125 C27.70125 97.1528125 27.37125 95.1728125 27.03125 93.1328125 C13.50125 93.1328125 -0.02875 93.1328125 -13.96875 93.1328125 C-14.62875 96.1028125 -15.28875 99.0728125 -15.96875 102.1328125 C-16.55252937 104.31094727 -17.17240075 106.48005621 -17.84375 108.6328125 C-18.15054687 109.65375 -18.45734375 110.6746875 -18.7734375 111.7265625 C-19.96875 114.1328125 -19.96875 114.1328125 -21.78833008 114.77270508 C-25.44989109 115.37743047 -29.07784177 115.31730404 -32.78125 115.3203125 C-33.56306641 115.33255859 -34.34488281 115.34480469 -35.15039062 115.35742188 C-40.12084682 115.36987916 -44.31883753 114.9623859 -48.96875 113.1328125 C-50.15626803 109.57025841 -49.72710066 108.78163338 -48.44018555 105.35327148 C-48.07714828 104.37196259 -47.71411102 103.39065369 -47.34007263 102.37960815 C-46.93265335 101.30687653 -46.52523407 100.2341449 -46.10546875 99.12890625 C-45.68624649 98.00219513 -45.26702423 96.87548401 -44.83509827 95.71463013 C-43.68858066 92.63669724 -42.53425918 89.56182411 -41.37687683 86.48796463 C-39.43994004 81.33360346 -37.52599712 76.17061041 -35.60702133 71.00954247 C-34.86642625 69.01870301 -34.12469588 67.02828915 -33.38284302 65.03791809 C-27.98212753 50.53591598 -22.75524341 35.97222221 -17.54013062 21.40255737 C-16.7940257 19.31835173 -16.04754991 17.23427881 -15.30064392 15.15036011 C-14.62916586 13.27632742 -13.95889623 11.40186113 -13.29005432 9.52688599 C-12.99678757 8.7079184 -12.70352081 7.88895081 -12.40136719 7.04516602 C-12.14716003 6.33328629 -11.89295288 5.62140656 -11.63104248 4.88795471 C-10.96875 3.1328125 -10.96875 3.1328125 -9.96875 1.1328125 C-6.46659947 -0.03457101 -3.69427777 0.00329678 0 0 Z M6.03125 26.1328125 C4.62139007 31.14878506 3.21567737 36.16589477 1.8137207 41.18408203 C1.33665698 42.88947565 0.85848052 44.59455841 0.37915039 46.29931641 C-0.31139343 48.75601747 -0.99786917 51.21382502 -1.68359375 53.671875 C-1.89717026 54.42836334 -2.11074677 55.18485168 -2.33079529 55.96426392 C-2.63099327 57.04470474 -2.63099327 57.04470474 -2.93725586 58.14697266 C-3.11268417 58.77318512 -3.28811249 59.39939758 -3.46885681 60.04458618 C-4.10722792 62.71128255 -4.51796129 65.42808022 -4.96875 68.1328125 C2.62125 68.1328125 10.21125 68.1328125 18.03125 68.1328125 C16.41906475 60.07188624 14.61181385 52.14203173 12.57226562 44.1887207 C12.02479001 42.04501767 11.48899101 39.89858366 10.953125 37.75195312 C10.60487877 36.38783884 10.25594635 35.02389951 9.90625 33.66015625 C9.59429687 32.43031006 9.28234375 31.20046387 8.9609375 29.93334961 C8.65414062 29.00917236 8.34734375 28.08499512 8.03125 27.1328125 C7.37125 26.8028125 6.71125 26.4728125 6.03125 26.1328125 Z " fill="#1D463F" transform="translate(420.96875,84.8671875)"/>
<path d="M0 0 C0.67671753 -0.00095673 1.35343506 -0.00191345 2.05065918 -0.00289917 C3.47957451 -0.00357882 4.90849296 -0.00173951 6.33740234 0.00244141 C8.5231826 0.00779275 10.70875738 0.00248922 12.89453125 -0.00390625 C14.28385462 -0.00324543 15.67317786 -0.00196419 17.0625 0 C18.32642578 0.00112793 19.59035156 0.00225586 20.89257812 0.00341797 C24.03125 0.1328125 24.03125 0.1328125 27.03125 1.1328125 C28.14013672 3.4152832 28.14013672 3.4152832 29.2109375 6.55859375 C29.6349585 7.7815918 30.05897949 9.00458984 30.49584961 10.26464844 C30.96601959 11.65819081 31.4361516 13.05174599 31.90625 14.4453125 C32.40961628 15.90831601 32.9143026 17.37086586 33.42016602 18.83300781 C34.59464178 22.23095439 35.76311637 25.63090294 36.92919922 29.03173828 C39.36380532 36.11550253 41.83938492 43.18489329 44.31640625 50.25390625 C44.54763687 50.91382883 44.77886749 51.57375141 45.0171051 52.25367165 C45.95973241 54.94365219 46.90247008 57.63359399 47.84545517 60.32344913 C49.47668347 64.9769203 51.10509012 69.63137122 52.73193359 74.28637695 C53.18028349 75.56889667 53.62864253 76.8514132 54.07701111 78.13392639 C54.90818871 80.51169471 55.73907508 82.88956487 56.56959534 85.26756287 C56.95131393 86.35908157 57.33303253 87.45060028 57.72631836 88.57519531 C58.09763885 89.63984009 58.46895935 90.70448486 58.85153198 91.8013916 C59.69582473 94.18560076 60.55458886 96.56045033 61.43289185 98.93200684 C61.66471192 99.5635606 61.896532 100.19511436 62.13537693 100.84580612 C62.78601503 102.61465145 63.44347367 104.38098362 64.10133362 106.14715576 C65.03125 109.1328125 65.03125 109.1328125 65.03125 113.1328125 C56.21859637 116.13712624 45.88421099 117.73957439 37.03125 114.1328125 C31.8271574 110.43212443 29.85301128 105.07139707 28.03125 99.1328125 C27.70125 97.1528125 27.37125 95.1728125 27.03125 93.1328125 C13.50125 93.1328125 -0.02875 93.1328125 -13.96875 93.1328125 C-14.62875 96.1028125 -15.28875 99.0728125 -15.96875 102.1328125 C-16.55252937 104.31094727 -17.17240075 106.48005621 -17.84375 108.6328125 C-18.15054688 109.65375 -18.45734375 110.6746875 -18.7734375 111.7265625 C-19.96875 114.1328125 -19.96875 114.1328125 -21.78833008 114.77270508 C-25.44989109 115.37743047 -29.07784177 115.31730404 -32.78125 115.3203125 C-33.56306641 115.33255859 -34.34488281 115.34480469 -35.15039062 115.35742188 C-40.14442822 115.36993826 -44.23429074 114.73203572 -48.96875 113.1328125 C-48.43667743 106.02964369 -46.33808653 99.93654141 -43.875 93.28125 C-43.45596405 92.12839005 -43.0369281 90.97553009 -42.60519409 89.78773499 C-41.46981142 86.66977585 -40.32701294 83.55475359 -39.18004608 80.44105148 C-37.98835868 77.20215195 -36.80452984 73.96038107 -35.61962891 70.71899414 C-33.92785133 66.09375669 -32.23215469 61.46998386 -30.53250313 56.84763432 C-28.03752679 50.0612074 -25.56498812 43.26710478 -23.11138916 36.46557617 C-21.56092874 32.17050511 -20.001147 27.87886031 -18.43920898 23.58795166 C-17.71009677 21.5794807 -16.98465905 19.56967195 -16.26293945 17.55853271 C-15.26679914 14.78625869 -14.25645208 12.01959078 -13.2421875 9.25390625 C-12.8075972 8.02849876 -12.8075972 8.02849876 -12.36422729 6.77833557 C-11.65289415 4.86184895 -10.82152989 2.99068286 -9.96875 1.1328125 C-6.46659947 -0.03457101 -3.69427777 0.00329678 0 0 Z M6.03125 26.1328125 C4.78333346 30.66696039 3.53833331 35.2018958 2.29589844 39.73754883 C1.87382582 41.27682513 1.4509904 42.8158925 1.02734375 44.35473633 C0.41460227 46.58098221 -0.1952892 48.80799321 -0.8046875 51.03515625 C-0.99122894 51.7105394 -1.17777039 52.38592255 -1.3699646 53.08177185 C-2.73378018 58.08147536 -3.8410271 63.05805945 -4.96875 68.1328125 C2.62125 68.1328125 10.21125 68.1328125 18.03125 68.1328125 C17.37348476 63.52845583 16.70236254 59.4991769 15.5078125 55.078125 C15.20875 53.96824219 14.9096875 52.85835937 14.6015625 51.71484375 C14.28960938 50.57402344 13.97765625 49.43320313 13.65625 48.2578125 C13.35203125 47.12472656 13.0478125 45.99164063 12.734375 44.82421875 C11.02424687 38.51720775 9.16841675 32.30830659 7.03125 26.1328125 C6.70125 26.1328125 6.37125 26.1328125 6.03125 26.1328125 Z " fill="#1D463F" transform="translate(658.96875,84.8671875)"/>
<path d="M0 0 C2.56127499 3.18189613 4.36404559 6.48618384 6.18286133 10.13867188 C6.48577591 10.74420898 6.78869049 11.34974609 7.1007843 11.97363281 C8.09833912 13.97013179 9.09019456 15.96940502 10.08203125 17.96875 C10.78046612 19.36935668 11.47925847 20.76978514 12.1783905 22.17004395 C14.01921841 25.85932742 15.8552396 29.55098263 17.69024658 33.24316406 C19.53870971 36.96039758 21.39157798 40.67543335 23.24414062 44.390625 C25.6595556 49.23550814 28.07368773 54.08102308 30.48467159 58.92811298 C31.40616045 60.7803535 32.32839713 62.63222022 33.2507019 64.48405457 C34.41019233 66.81453505 35.56706471 69.14632008 36.72122192 71.47944641 C37.2520639 72.54946396 37.78290588 73.61948151 38.32983398 74.72192383 C38.79364975 75.65966141 39.25746552 76.59739899 39.7353363 77.56355286 C48.44611786 94.34537312 63.76666143 105.54841613 81.25 111.8125 C116.5314314 122.60103687 152.47755496 116.05730033 184.72802734 99.23291016 C192.34220844 95.1009937 199.17585746 90.20509674 205.4765625 84.25 C207 83 207 83 209 83 C206.60632912 112.25947698 206.60632912 112.25947698 200.92578125 119.7265625 C195.02075932 124.3149774 187.70586839 125.50377384 180.4375 126.5625 C179.18803589 126.74582886 179.18803589 126.74582886 177.91333008 126.93286133 C131.60511312 133.21368904 60.3482232 138.47938662 20.30908203 109.78833008 C5.29520956 97.86851718 4.64598538 68.70907611 2.53369141 51.11621094 C0.59116104 34.07503988 -0.46342846 17.16401685 0 0 Z " fill="#B19666" transform="translate(7,160)"/>
<path d="M0 0 C30.69 0 61.38 0 93 0 C94.33106663 6.65533313 95.02150478 12.98924908 92.8125 19.5 C89.96579433 23.42649058 86.69092981 25.13217799 82 26 C79.30131978 26.09469053 76.63503308 26.13956814 73.9375 26.125 C73.21755859 26.12886719 72.49761719 26.13273437 71.75585938 26.13671875 C68.57291361 26.13080799 66.04052138 26.01350713 63 25 C63 54.04 63 83.08 63 113 C59.39223767 113.72155247 56.70181234 114.12787023 53.12890625 114.1328125 C51.77249023 114.13474609 51.77249023 114.13474609 50.38867188 114.13671875 C48.9897168 114.13091797 48.9897168 114.13091797 47.5625 114.125 C46.63373047 114.12886719 45.70496094 114.13273437 44.74804688 114.13671875 C43.84248047 114.13542969 42.93691406 114.13414062 42.00390625 114.1328125 C40.77909546 114.13112061 40.77909546 114.13112061 39.52954102 114.12939453 C36.66529011 113.98287846 33.82897368 113.47149561 31 113 C31 83.96 31 54.92 31 25 C30.01 25.33 29.02 25.66 28 26 C25.94702157 26.09476385 23.89110082 26.1307224 21.8359375 26.1328125 C20.02996094 26.13474609 20.02996094 26.13474609 18.1875 26.13671875 C16.3003125 26.13091797 16.3003125 26.13091797 14.375 26.125 C12.47621094 26.13080078 12.47621094 26.13080078 10.5390625 26.13671875 C9.33765625 26.13542969 8.13625 26.13414063 6.8984375 26.1328125 C5.79161621 26.13168457 4.68479492 26.13055664 3.54443359 26.12939453 C1 26 1 26 0 25 C-0.26860862 22.49298624 -0.47068006 20.01450732 -0.625 17.5 C-0.6765625 16.81679687 -0.728125 16.13359375 -0.78125 15.4296875 C-1.12635259 10.00954687 -0.61831668 5.56485008 0 0 Z " fill="#1F4741" transform="translate(1003,86)"/>
<path d="M0 0 C1.20269531 -0.00128906 2.40539063 -0.00257812 3.64453125 -0.00390625 C4.90652344 -0.00003906 6.16851563 0.00382812 7.46875 0.0078125 C9.36173828 0.00201172 9.36173828 0.00201172 11.29296875 -0.00390625 C12.49566406 -0.00261719 13.69835938 -0.00132813 14.9375 0 C16.04544922 0.00112793 17.15339844 0.00225586 18.29492188 0.00341797 C20.96875 0.1328125 20.96875 0.1328125 22.96875 1.1328125 C22.96875 38.4228125 22.96875 75.7128125 22.96875 114.1328125 C19.35037601 114.8564873 16.64763758 115.26070422 13.0625 115.265625 C11.69931641 115.26755859 11.69931641 115.26755859 10.30859375 115.26953125 C9.37144531 115.26566406 8.43429687 115.26179688 7.46875 115.2578125 C6.06302734 115.26361328 6.06302734 115.26361328 4.62890625 115.26953125 C3.72011719 115.26824219 2.81132813 115.26695312 1.875 115.265625 C1.05322266 115.26449707 0.23144531 115.26336914 -0.61523438 115.26220703 C-3.03125 115.1328125 -3.03125 115.1328125 -8.03125 114.1328125 C-8.03125 76.8428125 -8.03125 39.5528125 -8.03125 1.1328125 C-5.28600448 -0.23981026 -3.06905705 0.0031244 0 0 Z " fill="#19423C" transform="translate(1115.03125,84.8671875)"/>
<path d="M0 0 C1.20269531 -0.00128906 2.40539062 -0.00257812 3.64453125 -0.00390625 C4.90652344 -0.00003906 6.16851563 0.00382812 7.46875 0.0078125 C9.36173828 0.00201172 9.36173828 0.00201172 11.29296875 -0.00390625 C12.49566406 -0.00261719 13.69835937 -0.00132813 14.9375 0 C16.04544922 0.00112793 17.15339844 0.00225586 18.29492188 0.00341797 C20.96875 0.1328125 20.96875 0.1328125 22.96875 1.1328125 C22.96875 38.4228125 22.96875 75.7128125 22.96875 114.1328125 C19.35037601 114.8564873 16.64763758 115.26070422 13.0625 115.265625 C11.69931641 115.26755859 11.69931641 115.26755859 10.30859375 115.26953125 C9.37144531 115.26566406 8.43429687 115.26179688 7.46875 115.2578125 C6.06302734 115.26361328 6.06302734 115.26361328 4.62890625 115.26953125 C3.72011719 115.26824219 2.81132813 115.26695312 1.875 115.265625 C1.05322266 115.26449707 0.23144531 115.26336914 -0.61523438 115.26220703 C-3.03125 115.1328125 -3.03125 115.1328125 -8.03125 114.1328125 C-8.03125 76.8428125 -8.03125 39.5528125 -8.03125 1.1328125 C-5.28600448 -0.23981026 -3.06905705 0.0031244 0 0 Z " fill="#19423C" transform="translate(857.03125,84.8671875)"/>
<path d="M0 0 C0.87785156 0.02707031 1.75570313 0.05414063 2.66015625 0.08203125 C3.41167969 0.11683594 4.16320312 0.15164062 4.9375 0.1875 C5.5975 0.1875 6.2575 0.1875 6.9375 0.1875 C9.60416667 0.1875 12.27083333 0.1875 14.9375 0.1875 C15.05423963 4.54143904 15.12493418 8.89497211 15.1875 13.25 C15.23777344 15.09368164 15.23777344 15.09368164 15.2890625 16.97460938 C15.36407074 23.93162326 15.28459425 28.61308405 10.9375 34.1875 C5.91011761 37.98869157 0.00758271 37.89353681 -6.0625 37.1875 C-8.3984375 36.16796875 -8.3984375 36.16796875 -10.0625 35.1875 C-9.4025 33.2075 -8.7425 31.2275 -8.0625 29.1875 C-7.37542969 29.28289062 -6.68835938 29.37828125 -5.98046875 29.4765625 C-5.07941406 29.58742188 -4.17835938 29.69828125 -3.25 29.8125 C-2.35667969 29.92851562 -1.46335937 30.04453125 -0.54296875 30.1640625 C2.19440391 30.42250743 2.19440391 30.42250743 4.9375 28.1875 C4.9375 27.1975 4.9375 26.2075 4.9375 25.1875 C4.2775 25.5175 3.6175 25.8475 2.9375 26.1875 C-4.19480769 26.88903846 -4.19480769 26.88903846 -8 23.8125 C-11.88891334 18.86297393 -11.56878597 14.32510713 -11.0625 8.1875 C-9.75 5.1875 -9.75 5.1875 -8.0625 3.1875 C-7.63710938 2.65511719 -7.21171875 2.12273437 -6.7734375 1.57421875 C-4.4426215 -0.31491294 -2.95890081 -0.1176588 0 0 Z M-2.0625 8.1875 C-2.89203271 11.63325127 -3.39099046 14.1472802 -2.3125 17.5625 C-1.06531178 19.497197 -1.06531178 19.497197 1.9375 20.1875 C4.56593884 19.18250868 5.66153685 18.73942629 6.9375 16.1875 C7.23075631 12.81505239 7.278446 10.80444991 5.625 7.8125 C2.67188095 4.96875573 1.1309719 6.05851873 -2.0625 8.1875 Z " fill="#1B1B1B" transform="translate(345.0625,227.8125)"/>
<path d="M0 0 C2.97 0 5.94 0 9 0 C9.99 4.29 10.98 8.58 12 13 C12.45375 11.5975 12.9075 10.195 13.375 8.75 C14.36783204 5.68124642 15.49439503 2.85410334 17 0 C19.64 0 22.28 0 25 0 C25.99 3.96 26.98 7.92 28 12 C28.28875 11.13375 28.5775 10.2675 28.875 9.375 C29.91666667 6.25 30.95833333 3.125 32 0 C34.64 0 37.28 0 40 0 C38.85953957 4.14733078 37.71173874 8.29259392 36.5625 12.4375 C36.23701172 13.62150391 35.91152344 14.80550781 35.57617188 16.02539062 C35.26357422 17.15009766 34.95097656 18.27480469 34.62890625 19.43359375 C34.34088135 20.47572021 34.05285645 21.51784668 33.75610352 22.59155273 C33 25 33 25 32 26 C29.32941149 26.14115161 26.67567762 26.04247107 24 26 C23.51891725 24.58398286 23.04021859 23.16715563 22.5625 21.75 C22.29566406 20.96109375 22.02882813 20.1721875 21.75390625 19.359375 C21.0846051 17.2647745 20.53332008 15.13328033 20 13 C18.68 17.29 17.36 21.58 16 26 C13.03 26 10.06 26 7 26 C5.82898756 22.04293896 4.66392728 18.08415032 3.5 14.125 C3.16613281 12.99707031 2.83226562 11.86914062 2.48828125 10.70703125 C2.17246094 9.63066406 1.85664062 8.55429688 1.53125 7.4453125 C1.23798828 6.45031738 0.94472656 5.45532227 0.64257812 4.43017578 C0 2 0 2 0 0 Z " fill="#282828" transform="translate(523,228)"/>
<path d="M0 0 C2.64 0 5.28 0 8 0 C8 12.54 8 25.08 8 38 C4 38 0 38 -4 38 C-5.27875 38.0825 -6.5575 38.165 -7.875 38.25 C-10.84349097 38.21725929 -12.10539437 37.949594 -14.875 36.625 C-18.02931129 32.72849782 -18.84005739 28.9727611 -19 24 C-18.30976511 19.75440426 -17.33722655 16.30219005 -14.2109375 13.2578125 C-11.51398844 11.72350579 -9.8290716 11.6909577 -6.75 11.8125 C-5.41195313 11.85310547 -5.41195313 11.85310547 -4.046875 11.89453125 C-3.37140625 11.92933594 -2.6959375 11.96414062 -2 12 C-1.90912109 10.82630859 -1.90912109 10.82630859 -1.81640625 9.62890625 C-1.73261719 8.61699219 -1.64882813 7.60507813 -1.5625 6.5625 C-1.48128906 5.55316406 -1.40007812 4.54382813 -1.31640625 3.50390625 C-1 1 -1 1 0 0 Z M-8.25 19.5625 C-10.21340837 21.91846038 -10.21340837 21.91846038 -10.5 25 C-9.90092877 28.5944274 -8.7822335 29.73943528 -6 32 C-3.44309577 30.91744593 -3.44309577 30.91744593 -1 29 C0.01241953 25.82775215 0.26326284 23.88552046 -0.6875 20.6875 C-1.90305069 18.88811061 -1.90305069 18.88811061 -3.875 18 C-6.16565245 17.79798482 -6.16565245 17.79798482 -8.25 19.5625 Z " fill="#232323" transform="translate(426,216)"/>
<path d="M0 0 C2.64 0 5.28 0 8 0 C8.33 4.62 8.66 9.24 9 14 C9.66 13.34 10.32 12.68 11 12 C13.0234375 11.6640625 13.0234375 11.6640625 15.375 11.625 C16.53128906 11.58246094 16.53128906 11.58246094 17.7109375 11.5390625 C20 12 20 12 22.2734375 13.3203125 C25.08027732 17.67662951 24.41678707 22.19506887 24.25 27.25 C24.23195313 28.28125 24.21390625 29.3125 24.1953125 30.375 C24.14822712 32.91761064 24.0824805 35.45833162 24 38 C21.36 38 18.72 38 16 38 C15.67 32.06 15.34 26.12 15 20 C13.68 19.67 12.36 19.34 11 19 C8.51955685 22.72066472 8.55618827 25.86540474 8.375 30.1875 C8.31699219 31.31188477 8.31699219 31.31188477 8.2578125 32.45898438 C8.16371784 34.30559199 8.08077681 36.1527619 8 38 C5.36 38 2.72 38 0 38 C0 25.46 0 12.92 0 0 Z " fill="#171717" transform="translate(590,216)"/>
<path d="M0 0 C2.64 0 5.28 0 8 0 C8.06058594 1.04800781 8.12117188 2.09601563 8.18359375 3.17578125 C8.26801738 4.55470048 8.35266447 5.93360605 8.4375 7.3125 C8.47681641 8.00279297 8.51613281 8.69308594 8.55664062 9.40429688 C8.74927415 12.47161535 9.02322717 15.06968152 10 18 C10.99 18.33 11.98 18.66 13 19 C13.66 18.67 14.32 18.34 15 18 C15.495 9.09 15.495 9.09 16 0 C18.97 0 21.94 0 25 0 C25 8.58 25 17.16 25 26 C21 26 17 26 13 26 C11.700625 26.061875 10.40125 26.12375 9.0625 26.1875 C6.23371448 26.1875 5.11749371 26.06326584 2.5625 24.6875 C-0.10062055 21.81132981 -0.12144069 19.0661876 -0.09765625 15.33203125 C-0.09443359 14.43935547 -0.09121094 13.54667969 -0.08789062 12.62695312 C-0.07951172 11.69818359 -0.07113281 10.76941406 -0.0625 9.8125 C-0.05798828 8.87212891 -0.05347656 7.93175781 -0.04882812 6.96289062 C-0.03704626 4.64186288 -0.02059558 2.32096356 0 0 Z " fill="#282828" transform="translate(438,228)"/>
<path d="M0 0 C1.68609375 -0.04253906 1.68609375 -0.04253906 3.40625 -0.0859375 C7.11760284 0.46701658 8.21273773 1.47276627 10.5 4.375 C11.70029908 6.77559817 11.61459743 8.26860649 11.59765625 10.9453125 C11.59443359 11.84121094 11.59121094 12.73710937 11.58789062 13.66015625 C11.57951172 14.59730469 11.57113281 15.53445312 11.5625 16.5 C11.55798828 17.44488281 11.55347656 18.38976562 11.54882812 19.36328125 C11.53702357 21.70058387 11.52055759 24.03776061 11.5 26.375 C7.83333333 26.375 4.16666667 26.375 0.5 26.375 C-1.4490625 26.49875 -1.4490625 26.49875 -3.4375 26.625 C-6.43805162 26.60842237 -7.36532437 26.45917227 -10 24.8125 C-12.11006839 21.38363886 -12.12491523 19.33279649 -11.5 15.375 C-9.625 12.5 -9.625 12.5 -6.5 10.375 C-3.1656239 9.68776218 0.10034691 9.44761395 3.5 9.375 C3.17 8.715 2.84 8.055 2.5 7.375 C-3.07830016 7.25030901 -3.07830016 7.25030901 -8.5 8.375 C-9.16 6.395 -9.82 4.415 -10.5 2.375 C-6.99652737 0.22826432 -4.07015718 0.04667611 0 0 Z M-3.5 16.375 C-3.17 17.695 -2.84 19.015 -2.5 20.375 C-0.85 20.045 0.8 19.715 2.5 19.375 C2.83 17.725 3.16 16.075 3.5 14.375 C0.39448334 14.375 -0.85261084 14.9143715 -3.5 16.375 Z " fill="#272727" transform="translate(510.5,227.625)"/>
<path d="M0 0 C3.67930728 2.09215512 4.6704934 3.01148019 6 7 C6.0806622 8.48123547 6.10761193 9.96582204 6.09765625 11.44921875 C6.09443359 12.29677734 6.09121094 13.14433594 6.08789062 14.01757812 C6.07951172 14.89865234 6.07113281 15.77972656 6.0625 16.6875 C6.05798828 17.58017578 6.05347656 18.47285156 6.04882812 19.39257812 C6.03704983 21.59511987 6.02060164 23.79752599 6 26 C3.36 26 0.72 26 -2 26 C-2.33 25.34 -2.66 24.68 -3 24 C-3.66 24.66 -4.32 25.32 -5 26 C-8.95735353 26.31914141 -11.79424398 26.45215851 -15.5 25.0625 C-17.62818779 22.13624179 -17.62235768 19.71476033 -17.4375 16.15625 C-17 14 -17 14 -15.0625 11.5625 C-11.14448346 9.56351197 -7.31824124 8.71500291 -3 8 C-3 7.34 -3 6.68 -3 6 C-6.63 6.66 -10.26 7.32 -14 8 C-14.66 6.02 -15.32 4.04 -16 2 C-11.02242598 -0.98415709 -5.62352327 -0.63763993 0 0 Z M-9 15 C-9.33 15.99 -9.66 16.98 -10 18 C-9.34 18.66 -8.68 19.32 -8 20 C-5.39719432 19.67958603 -5.39719432 19.67958603 -3 19 C-2.67 17.35 -2.34 15.7 -2 14 C-5.89459074 13.78918149 -5.89459074 13.78918149 -9 15 Z " fill="#242424" transform="translate(580,228)"/>
<path d="M0 0 C3.21725013 1.8097032 4.54322539 3.17345547 6.3125 6.375 C7 9 7 9 7 15 C1.72 15 -3.56 15 -9 15 C-8.67 15.99 -8.34 16.98 -8 18 C-3.58937864 19.0257259 -1.07369424 19.03684712 3 17 C4.32 18.65 5.64 20.3 7 22 C2.36009299 26.01289255 -1.26822861 26.62751207 -7.37109375 26.38671875 C-11.12066707 25.83514704 -13.26453196 24.59518763 -16 22 C-18.32664593 18.08700456 -18.39335225 14.48421565 -18 10 C-14.67263291 1.06864624 -9.11452604 -1.48410868 0 0 Z M-8 6 C-8.33 7.32 -8.66 8.64 -9 10 C-6.36 10 -3.72 10 -1 10 C-1.33 8.68 -1.66 7.36 -2 6 C-3.98 6 -5.96 6 -8 6 Z " fill="#1E1E1E" transform="translate(381,228)"/>
<path d="M0 0 C1.32 0 2.64 0 4 0 C4.33 4.62 4.66 9.24 5 14 C5.99 13.34 6.98 12.68 8 12 C11.06526351 11.45468158 13.93408329 11.45674107 17 12 C19.75569447 14.18159145 21.43588747 15.87177494 23 19 C23.55845758 24.97120027 23.48058514 29.9034289 20 35 C18.06251346 37.23556139 16.78118132 37.91068163 13.84765625 38.24609375 C9.61645871 38.36267456 7.62548929 38.41699286 4 36 C4 36.66 4 37.32 4 38 C2.35 38 0.7 38 -1 38 C-1.02464928 32.74894558 -1.04283568 27.49792455 -1.05493164 22.24682617 C-1.05997218 20.45905979 -1.06680454 18.67129755 -1.07543945 16.88354492 C-1.0875173 14.31948832 -1.09323094 11.75548603 -1.09765625 9.19140625 C-1.10281754 8.3872377 -1.10797882 7.58306915 -1.11329651 6.75453186 C-1.11349215 4.83598285 -1.06201983 2.91754632 -1 1 C-0.67 0.67 -0.34 0.34 0 0 Z M6.125 17.3125 C3.62209124 21.06686314 3.62253691 24.62142818 4 29 C5.36942449 32.10847573 5.36942449 32.10847573 8 34 C11.7285505 34.06541317 13.95858979 33.80625307 16.9375 31.5 C18.56562343 27.66912135 18.53367487 24.09651839 18 20 C17.15479867 17.34155783 17.15479867 17.34155783 15 16 C10.29176059 15.3914764 10.29176059 15.3914764 6.125 17.3125 Z " fill="#353535" transform="translate(273,216)"/>
<path d="M0 0 C0.9590625 -0.01675781 1.918125 -0.03351563 2.90625 -0.05078125 C5.84780511 0.36121367 6.70423739 1.01319585 8.5 3.3125 C7.5 5.3125 7.5 5.3125 5.5 7.3125 C2.74627091 7.68183645 0.29634339 7.49586678 -2.5 7.3125 C-1.96375 7.580625 -1.4275 7.84875 -0.875 8.125 C-0.09125 8.516875 0.6925 8.90875 1.5 9.3125 C2.551875 9.8075 3.60375 10.3025 4.6875 10.8125 C7.5 12.3125 7.5 12.3125 8.5 14.3125 C9.0801105 20.57769337 9.0801105 20.57769337 6.625 23.6875 C3.42686372 26.13313362 1.60399889 26.4704822 -2.375 26.5 C-3.67050781 26.52126953 -3.67050781 26.52126953 -4.9921875 26.54296875 C-7.6241288 26.30109252 -9.23980544 25.64233541 -11.5 24.3125 C-11.17 22.6625 -10.84 21.0125 -10.5 19.3125 C-6.68243176 17.93817543 -3.42744671 18.63274961 0.5 19.3125 C-1.66667243 17.14582757 -2.6360795 16.9094194 -5.5 16.125 C-9.08241109 14.83950823 -9.36264317 14.58721365 -11.1875 10.9375 C-11.54425712 6.79911739 -11.11488236 5.46839251 -8.5 2.3125 C-5.16602694 0.08985129 -3.90485109 0.01574537 0 0 Z " fill="#242424" transform="translate(489.5,227.6875)"/>
<path d="M0 0 C1.65 0 3.3 0 5 0 C7.31 5.94 9.62 11.88 12 18 C14.31 12.06 16.62 6.12 19 0 C20.65 0 22.3 0 24 0 C21.61446875 7.39905759 18.90641447 14.64055488 16.0625 21.875 C15.63259766 23.00164062 15.20269531 24.12828125 14.75976562 25.2890625 C14.33501953 26.36671875 13.91027344 27.444375 13.47265625 28.5546875 C13.09375244 29.52905762 12.71484863 30.50342773 12.32446289 31.50732422 C10.86489448 34.25427232 9.68608975 35.4640855 7 37 C3.75 37.1875 3.75 37.1875 1 37 C1 35.68 1 34.36 1 33 C1.78375 32.7525 2.5675 32.505 3.375 32.25 C6.03551691 31.22155309 6.03551691 31.22155309 7.375 29.25 C9.02048386 23.32625809 5.65514479 17.22706639 3.4375 11.8125 C2.78567876 10.21674976 2.1383386 8.61915973 1.49609375 7.01953125 C1.20919678 6.31932861 0.9222998 5.61912598 0.62670898 4.89770508 C0 3 0 3 0 0 Z " fill="#3A3A3A" transform="translate(297,228)"/>
<path d="M0 0 C5.66666667 0 11.33333333 0 17 0 C17 2.31 17 4.62 17 7 C14.69 7.33 12.38 7.66 10 8 C9.67 13.94 9.34 19.88 9 26 C6.03 26 3.06 26 0 26 C0 17.42 0 8.84 0 0 Z " fill="#2D2D2D" transform="translate(390,228)"/>
<path d="M0 0 C1.32 0 2.64 0 4 0 C4.33 4.62 4.66 9.24 5 14 C5.99 13.34 6.98 12.68 8 12 C10.1875 12.375 10.1875 12.375 12 13 C11.01 13.33 10.02 13.66 9 14 C10.32 14.66 11.64 15.32 13 16 C6.375 18.125 6.375 18.125 3 17 C3 11.72 3 6.44 3 1 C2.01 0.67 1.02 0.34 0 0 Z " fill="#4D4D4D" transform="translate(273,216)"/>
<path d="M0 0 C3 4 3 4 3 6 C2.34 6 1.68 6 1 6 C1 11.61 1 17.22 1 23 C0.67 23 0.34 23 0 23 C0 15.41 0 7.82 0 0 Z " fill="#DCC9A4" transform="translate(7,160)"/>
</svg>
