<svg xmlns="http://www.w3.org/2000/svg" xmlns:xlink="http://www.w3.org/1999/xlink" width="136" zoomAndPan="magnify" viewBox="0 0 102 30.000001" height="40" preserveAspectRatio="xMidYMid meet" version="1.0"><path fill="#d6b77c" d="M 17.707031 5.757812 C 19.929688 8.144531 20.382812 12.894531 20.3125 15.964844 C 20.308594 16.035156 20.308594 16.105469 20.304688 16.179688 C 20.257812 16.167969 20.210938 16.15625 20.164062 16.140625 C 19.949219 16.085938 19.738281 16.027344 19.523438 15.972656 C 19.449219 15.953125 19.378906 15.933594 19.304688 15.914062 C 17.402344 15.414062 15.574219 15.714844 13.730469 16.292969 C 12.609375 16.644531 11.328125 16.664062 10.25 16.152344 C 9.898438 15.949219 9.582031 15.71875 9.265625 15.460938 C 9.039062 15.285156 9.039062 15.285156 8.761719 15.230469 C 8.578125 15.253906 8.578125 15.253906 8.335938 15.328125 C 8.207031 15.703125 8.265625 15.921875 8.433594 16.265625 C 9.003906 17.292969 9.828125 17.746094 10.933594 18.132812 C 11.886719 18.390625 12.800781 18.414062 13.78125 18.402344 C 13.914062 18.402344 14.046875 18.402344 14.179688 18.402344 C 14.5 18.398438 14.816406 18.398438 15.136719 18.394531 C 14.816406 18.722656 14.558594 18.914062 14.125 19.089844 C 13.976562 19.152344 13.976562 19.152344 13.828125 19.214844 C 12.378906 19.722656 10.773438 19.632812 9.363281 19.050781 C 8.226562 18.488281 7.46875 17.570312 6.898438 16.472656 C 6.863281 16.402344 6.828125 16.335938 6.789062 16.265625 C 6.542969 15.789062 6.308594 15.308594 6.078125 14.824219 C 5.515625 13.636719 4.929688 12.472656 3.847656 11.667969 C 3.800781 11.632812 3.75 11.59375 3.703125 11.558594 C 3.261719 11.234375 2.800781 10.96875 2.308594 10.730469 C 2.558594 7.546875 2.558594 7.546875 3.554688 6.507812 C 3.941406 6.207031 4.414062 6.121094 4.886719 6.011719 C 5.039062 5.972656 5.039062 5.972656 5.195312 5.933594 C 15.113281 3.554688 15.113281 3.554688 17.707031 5.757812 Z M 11.023438 6.601562 C 10.484375 7.207031 10.285156 7.886719 10.296875 8.683594 C 10.382812 9.878906 10.679688 11.175781 11.550781 12.058594 C 11.859375 12.320312 12.046875 12.347656 12.453125 12.347656 C 13.070312 12.246094 13.460938 11.832031 13.820312 11.351562 C 14.480469 10.355469 15.035156 9.0625 14.839844 7.851562 C 14.628906 7.035156 14.203125 6.449219 13.503906 5.964844 C 12.550781 5.4375 11.742188 5.921875 11.023438 6.601562 Z M 8.21875 11.539062 C 7.925781 11.980469 7.941406 12.433594 7.992188 12.945312 C 8.25 13.832031 9.03125 14.304688 9.785156 14.757812 C 10.289062 15.023438 10.699219 15.136719 11.261719 15.074219 C 11.542969 14.933594 11.542969 14.933594 11.695312 14.648438 C 11.867188 13.726562 11.472656 12.792969 10.980469 12.03125 C 10.59375 11.523438 10.1875 11.175781 9.542969 11.070312 C 9.011719 11.015625 8.589844 11.152344 8.21875 11.539062 Z M 13.070312 12.945312 C 12.765625 13.410156 12.523438 13.832031 12.46875 14.390625 C 12.601562 14.730469 12.679688 14.871094 12.984375 15.074219 C 14.03125 15.203125 15.144531 14.925781 16 14.304688 C 16.460938 13.878906 16.691406 13.492188 16.714844 12.863281 C 16.703125 12.488281 16.667969 12.230469 16.429688 11.921875 C 16.007812 11.597656 15.558594 11.519531 15.035156 11.546875 C 14.148438 11.679688 13.59375 12.265625 13.070312 12.945312 Z M 13.070312 12.945312 " fill-opacity="1" fill-rule="nonzero"/><path fill="#1c453e" d="M 53.109375 6.984375 C 53.246094 7.121094 53.207031 7.257812 53.207031 7.445312 C 53.207031 7.566406 53.207031 7.566406 53.207031 7.691406 C 53.207031 7.824219 53.207031 7.824219 53.207031 7.960938 C 53.207031 8.101562 53.207031 8.101562 53.207031 8.246094 C 53.207031 8.558594 53.207031 8.867188 53.207031 9.179688 C 53.207031 9.394531 53.207031 9.609375 53.207031 9.824219 C 53.207031 10.277344 53.207031 10.730469 53.207031 11.183594 C 53.207031 11.707031 53.207031 12.230469 53.207031 12.753906 C 53.207031 13.253906 53.207031 13.757812 53.207031 14.257812 C 53.207031 14.472656 53.207031 14.6875 53.207031 14.902344 C 53.207031 15.203125 53.207031 15.5 53.207031 15.800781 C 53.207031 15.886719 53.207031 15.976562 53.207031 16.070312 C 53.207031 16.152344 53.207031 16.230469 53.207031 16.316406 C 53.207031 16.421875 53.207031 16.421875 53.207031 16.53125 C 53.195312 16.691406 53.195312 16.691406 53.109375 16.777344 C 52.558594 16.863281 52.019531 16.875 51.460938 16.875 C 51.339844 16.878906 51.339844 16.878906 51.210938 16.878906 C 51.089844 16.878906 51.089844 16.878906 50.96875 16.878906 C 50.894531 16.878906 50.824219 16.882812 50.746094 16.882812 C 50.464844 16.855469 50.269531 16.816406 50.011719 16.691406 C 49.847656 16.484375 49.746094 16.257812 49.636719 16.023438 C 49.605469 15.953125 49.570312 15.886719 49.539062 15.816406 C 49.433594 15.597656 49.328125 15.375 49.222656 15.152344 C 49.152344 15 49.078125 14.847656 49.003906 14.695312 C 48.859375 14.394531 48.714844 14.09375 48.574219 13.789062 C 48.402344 13.425781 48.226562 13.066406 48.050781 12.707031 C 48.003906 12.609375 47.957031 12.515625 47.90625 12.417969 C 47.863281 12.328125 47.820312 12.242188 47.777344 12.152344 C 47.492188 11.574219 47.230469 10.992188 46.996094 10.390625 C 47 10.453125 47 10.515625 47.003906 10.582031 C 47.085938 12.648438 47.09375 14.710938 47.082031 16.777344 C 46.796875 16.839844 46.535156 16.871094 46.246094 16.871094 C 46.171875 16.871094 46.09375 16.871094 46.019531 16.871094 C 45.941406 16.871094 45.863281 16.871094 45.785156 16.871094 C 45.667969 16.871094 45.667969 16.871094 45.550781 16.871094 C 45.476562 16.871094 45.402344 16.871094 45.324219 16.871094 C 45.257812 16.871094 45.191406 16.871094 45.121094 16.871094 C 44.929688 16.859375 44.929688 16.859375 44.585938 16.777344 C 44.585938 13.601562 44.585938 10.425781 44.585938 7.15625 C 44.964844 7.09375 45.273438 7.058594 45.652344 7.058594 C 45.753906 7.058594 45.855469 7.058594 45.960938 7.058594 C 46.066406 7.058594 46.171875 7.058594 46.28125 7.058594 C 46.386719 7.058594 46.492188 7.058594 46.601562 7.058594 C 46.703125 7.058594 46.804688 7.058594 46.910156 7.058594 C 47.050781 7.058594 47.050781 7.058594 47.191406 7.058594 C 47.425781 7.070312 47.425781 7.070312 47.683594 7.15625 C 47.792969 7.335938 47.882812 7.507812 47.972656 7.695312 C 48 7.753906 48.027344 7.808594 48.054688 7.867188 C 48.144531 8.050781 48.230469 8.238281 48.320312 8.421875 C 48.382812 8.550781 48.445312 8.675781 48.503906 8.804688 C 48.632812 9.066406 48.757812 9.328125 48.882812 9.585938 C 49.046875 9.929688 49.214844 10.273438 49.382812 10.613281 C 49.429688 10.714844 49.480469 10.816406 49.53125 10.917969 C 49.621094 11.101562 49.710938 11.285156 49.800781 11.46875 C 50.148438 12.179688 50.46875 12.902344 50.785156 13.625 C 50.78125 13.527344 50.773438 13.429688 50.769531 13.332031 C 50.75 12.960938 50.730469 12.59375 50.710938 12.222656 C 50.703125 12.066406 50.695312 11.90625 50.6875 11.75 C 50.640625 10.917969 50.605469 10.089844 50.601562 9.257812 C 50.601562 9.164062 50.601562 9.164062 50.601562 9.066406 C 50.605469 7.734375 50.605469 7.734375 51.042969 7.238281 C 51.621094 6.90625 52.457031 6.945312 53.109375 6.984375 Z M 53.109375 6.984375 " fill-opacity="1" fill-rule="nonzero"/><path fill="#1c453e" d="M 25.734375 7.054688 C 25.820312 7.054688 25.90625 7.050781 25.996094 7.050781 C 26.085938 7.050781 26.175781 7.050781 26.269531 7.050781 C 26.367188 7.050781 26.460938 7.046875 26.5625 7.046875 C 26.761719 7.046875 26.964844 7.046875 27.167969 7.042969 C 27.371094 7.042969 27.578125 7.042969 27.78125 7.039062 C 29.480469 7.019531 31.128906 7.03125 32.4375 8.238281 C 33.402344 9.265625 33.582031 10.582031 33.585938 11.921875 C 33.585938 12.03125 33.589844 12.136719 33.589844 12.246094 C 33.597656 13.539062 33.328125 14.75 32.4375 15.742188 C 30.515625 17.464844 27.101562 16.855469 24.867188 16.777344 C 24.867188 13.601562 24.867188 10.425781 24.867188 7.15625 C 25.183594 7.09375 25.421875 7.058594 25.734375 7.054688 Z M 27.535156 9.113281 C 27.535156 10.96875 27.535156 12.820312 27.535156 14.730469 C 29.277344 14.871094 29.277344 14.871094 30.121094 14.390625 C 30.296875 14.226562 30.296875 14.226562 30.410156 14.035156 C 30.449219 13.976562 30.488281 13.917969 30.53125 13.855469 C 30.808594 13.253906 30.839844 12.628906 30.835938 11.976562 C 30.835938 11.898438 30.835938 11.820312 30.835938 11.738281 C 30.820312 10.855469 30.691406 10.097656 30.035156 9.453125 C 29.25 8.964844 28.480469 9.113281 27.535156 9.113281 Z M 27.535156 9.113281 " fill-opacity="1" fill-rule="nonzero"/><path fill="#1c453e" d="M 80.664062 7.054688 C 80.746094 7.054688 80.828125 7.050781 80.910156 7.050781 C 81.042969 7.050781 81.042969 7.050781 81.175781 7.050781 C 81.265625 7.050781 81.359375 7.046875 81.453125 7.046875 C 81.648438 7.046875 81.839844 7.046875 82.035156 7.042969 C 82.230469 7.042969 82.425781 7.042969 82.621094 7.039062 C 85.71875 7 85.71875 7 86.839844 8.066406 C 87.417969 8.683594 87.585938 9.394531 87.574219 10.222656 C 87.5 11.027344 87.128906 11.652344 86.515625 12.179688 C 86.289062 12.320312 86.078125 12.417969 85.828125 12.519531 C 85.875 12.566406 85.925781 12.613281 85.972656 12.664062 C 86.039062 12.726562 86.105469 12.792969 86.171875 12.859375 C 86.242188 12.914062 86.308594 12.972656 86.378906 13.03125 C 86.714844 13.410156 86.902344 13.851562 87.121094 14.304688 C 87.238281 14.546875 87.355469 14.785156 87.476562 15.023438 C 87.503906 15.082031 87.53125 15.140625 87.558594 15.199219 C 87.726562 15.53125 87.90625 15.8125 88.152344 16.09375 C 87.699219 16.597656 87.238281 16.855469 86.554688 16.933594 C 86.054688 16.960938 85.664062 16.929688 85.273438 16.59375 C 85.03125 16.324219 84.878906 16.050781 84.726562 15.726562 C 84.667969 15.605469 84.605469 15.488281 84.546875 15.367188 C 84.488281 15.238281 84.425781 15.113281 84.363281 14.988281 C 84.242188 14.734375 84.117188 14.484375 83.992188 14.230469 C 83.953125 14.144531 83.953125 14.144531 83.910156 14.054688 C 83.769531 13.773438 83.6875 13.632812 83.417969 13.457031 C 83.078125 13.425781 82.734375 13.398438 82.382812 13.371094 C 82.382812 14.492188 82.382812 15.617188 82.382812 16.777344 C 82.074219 16.835938 81.839844 16.871094 81.53125 16.871094 C 81.414062 16.871094 81.414062 16.871094 81.292969 16.871094 C 81.214844 16.871094 81.132812 16.871094 81.050781 16.871094 C 80.929688 16.871094 80.929688 16.871094 80.804688 16.871094 C 80.726562 16.871094 80.648438 16.871094 80.566406 16.871094 C 80.496094 16.871094 80.425781 16.871094 80.355469 16.871094 C 80.144531 16.859375 80.144531 16.859375 79.714844 16.777344 C 79.714844 13.601562 79.714844 10.425781 79.714844 7.15625 C 80.054688 7.097656 80.328125 7.058594 80.664062 7.054688 Z M 82.382812 9.027344 C 82.382812 9.785156 82.382812 10.546875 82.382812 11.328125 C 82.644531 11.320312 82.902344 11.3125 83.171875 11.304688 C 83.25 11.304688 83.332031 11.304688 83.414062 11.300781 C 83.882812 11.28125 84.171875 11.214844 84.539062 10.902344 C 84.726562 10.578125 84.796875 10.375 84.789062 10 C 84.699219 9.671875 84.585938 9.460938 84.363281 9.199219 C 83.96875 8.976562 83.570312 9.007812 83.132812 9.015625 C 82.761719 9.023438 82.761719 9.023438 82.382812 9.027344 Z M 82.382812 9.027344 " fill-opacity="1" fill-rule="nonzero"/><path fill="#1c453e" d="M 65.769531 7.058594 C 65.871094 7.058594 65.976562 7.058594 66.082031 7.058594 C 66.191406 7.058594 66.300781 7.058594 66.414062 7.058594 C 66.574219 7.058594 66.574219 7.058594 66.742188 7.058594 C 66.84375 7.058594 66.949219 7.058594 67.054688 7.058594 C 67.152344 7.058594 67.246094 7.058594 67.34375 7.058594 C 67.574219 7.070312 67.574219 7.070312 67.746094 7.15625 C 67.746094 8.335938 67.746094 9.515625 67.746094 10.730469 C 68.40625 10.636719 68.40625 10.636719 68.632812 10.335938 C 68.683594 10.242188 68.734375 10.144531 68.785156 10.050781 C 68.816406 10 68.84375 9.949219 68.871094 9.894531 C 68.960938 9.734375 69.050781 9.570312 69.136719 9.40625 C 69.222656 9.246094 69.3125 9.085938 69.398438 8.925781 C 69.457031 8.820312 69.515625 8.714844 69.570312 8.609375 C 70.320312 7.242188 70.320312 7.242188 70.847656 7.070312 C 71.171875 7.046875 71.5 7.050781 71.824219 7.046875 C 71.914062 7.046875 72.003906 7.046875 72.097656 7.042969 C 72.910156 7.039062 72.910156 7.039062 73.257812 7.324219 C 71.546875 10.324219 71.546875 10.324219 70.761719 11.328125 C 70.703125 11.410156 70.648438 11.496094 70.589844 11.582031 C 70.679688 11.589844 70.679688 11.589844 70.769531 11.597656 C 71.183594 11.714844 71.429688 11.929688 71.65625 12.28125 C 72.035156 12.972656 72.34375 13.6875 72.644531 14.414062 C 72.710938 14.570312 72.777344 14.726562 72.84375 14.882812 C 72.882812 14.976562 72.921875 15.066406 72.960938 15.160156 C 73.089844 15.417969 73.246094 15.617188 73.429688 15.839844 C 73.429688 15.894531 73.429688 15.953125 73.429688 16.007812 C 73.488281 16.039062 73.542969 16.066406 73.601562 16.09375 C 73.191406 16.566406 72.75 16.824219 72.117188 16.890625 C 71.148438 16.914062 71.148438 16.914062 70.761719 16.605469 C 70.285156 16.023438 70.027344 15.359375 69.757812 14.667969 C 69.679688 14.464844 69.601562 14.261719 69.519531 14.058594 C 69.484375 13.96875 69.449219 13.878906 69.414062 13.789062 C 69.246094 13.433594 69.078125 13.175781 68.714844 13.003906 C 68.371094 12.921875 68.371094 12.921875 67.746094 12.945312 C 67.746094 14.207031 67.746094 15.472656 67.746094 16.777344 C 67.433594 16.835938 67.203125 16.871094 66.894531 16.871094 C 66.777344 16.871094 66.777344 16.871094 66.65625 16.871094 C 66.578125 16.871094 66.496094 16.871094 66.414062 16.871094 C 66.292969 16.871094 66.292969 16.871094 66.167969 16.871094 C 66.089844 16.871094 66.011719 16.871094 65.929688 16.871094 C 65.859375 16.871094 65.789062 16.871094 65.714844 16.871094 C 65.507812 16.859375 65.507812 16.859375 65.078125 16.777344 C 65.078125 13.601562 65.078125 10.425781 65.078125 7.15625 C 65.3125 7.039062 65.503906 7.058594 65.769531 7.058594 Z M 65.769531 7.058594 " fill-opacity="1" fill-rule="nonzero"/><path fill="#1d463f" d="M 37.953125 7.058594 C 38.011719 7.058594 38.070312 7.058594 38.128906 7.058594 C 38.253906 7.058594 38.375 7.058594 38.5 7.058594 C 38.6875 7.058594 38.875 7.058594 39.0625 7.058594 C 39.183594 7.058594 39.300781 7.058594 39.421875 7.058594 C 39.53125 7.058594 39.640625 7.058594 39.75 7.058594 C 40.023438 7.070312 40.023438 7.070312 40.28125 7.15625 C 40.367188 7.347656 40.4375 7.527344 40.503906 7.730469 C 40.527344 7.789062 40.546875 7.851562 40.570312 7.914062 C 40.644531 8.125 40.714844 8.335938 40.785156 8.542969 C 40.835938 8.691406 40.890625 8.839844 40.941406 8.988281 C 41.027344 9.234375 41.109375 9.476562 41.195312 9.722656 C 41.546875 10.738281 41.90625 11.753906 42.265625 12.765625 C 42.386719 13.109375 42.507812 13.453125 42.628906 13.796875 C 42.6875 13.960938 42.746094 14.125 42.804688 14.292969 C 42.875 14.496094 42.949219 14.695312 43.019531 14.898438 C 43.050781 14.992188 43.085938 15.082031 43.117188 15.175781 C 43.164062 15.304688 43.164062 15.304688 43.207031 15.433594 C 43.285156 15.644531 43.363281 15.847656 43.445312 16.054688 C 43.550781 16.351562 43.550781 16.351562 43.550781 16.691406 C 42.792969 16.945312 41.902344 17.082031 41.140625 16.777344 C 40.691406 16.460938 40.523438 16.003906 40.367188 15.5 C 40.335938 15.328125 40.308594 15.160156 40.28125 14.988281 C 39.113281 14.988281 37.949219 14.988281 36.75 14.988281 C 36.691406 15.242188 36.636719 15.492188 36.578125 15.753906 C 36.527344 15.9375 36.472656 16.125 36.417969 16.308594 C 36.390625 16.394531 36.363281 16.480469 36.335938 16.570312 C 36.234375 16.777344 36.234375 16.777344 36.078125 16.832031 C 35.761719 16.882812 35.449219 16.875 35.128906 16.875 C 35.0625 16.878906 34.996094 16.878906 34.925781 16.878906 C 34.5 16.882812 34.136719 16.847656 33.738281 16.691406 C 33.632812 16.386719 33.671875 16.320312 33.78125 16.027344 C 33.8125 15.945312 33.84375 15.859375 33.875 15.773438 C 33.910156 15.683594 33.945312 15.59375 33.984375 15.5 C 34.019531 15.402344 34.054688 15.304688 34.09375 15.207031 C 34.191406 14.945312 34.289062 14.683594 34.390625 14.421875 C 34.558594 13.984375 34.722656 13.542969 34.886719 13.105469 C 34.949219 12.933594 35.015625 12.765625 35.078125 12.597656 C 35.542969 11.359375 35.992188 10.121094 36.441406 8.878906 C 36.507812 8.703125 36.570312 8.527344 36.636719 8.347656 C 36.691406 8.1875 36.75 8.027344 36.808594 7.871094 C 36.832031 7.800781 36.859375 7.730469 36.886719 7.660156 C 36.90625 7.597656 36.929688 7.539062 36.953125 7.476562 C 37.007812 7.324219 37.007812 7.324219 37.09375 7.15625 C 37.394531 7.054688 37.632812 7.058594 37.953125 7.058594 Z M 38.472656 9.285156 C 38.351562 9.710938 38.230469 10.136719 38.109375 10.566406 C 38.066406 10.710938 38.027344 10.855469 37.984375 11 C 37.925781 11.210938 37.867188 11.417969 37.808594 11.628906 C 37.789062 11.691406 37.769531 11.757812 37.753906 11.824219 C 37.726562 11.914062 37.726562 11.914062 37.699219 12.007812 C 37.683594 12.0625 37.667969 12.117188 37.652344 12.171875 C 37.597656 12.398438 37.5625 12.628906 37.523438 12.859375 C 38.179688 12.859375 38.832031 12.859375 39.503906 12.859375 C 39.367188 12.171875 39.210938 11.496094 39.035156 10.820312 C 38.988281 10.636719 38.941406 10.457031 38.894531 10.273438 C 38.867188 10.15625 38.835938 10.039062 38.804688 9.925781 C 38.777344 9.820312 38.75 9.714844 38.722656 9.605469 C 38.699219 9.527344 38.671875 9.449219 38.644531 9.367188 C 38.585938 9.339844 38.53125 9.3125 38.472656 9.285156 Z M 38.472656 9.285156 " fill-opacity="1" fill-rule="nonzero"/><path fill="#1d463f" d="M 58.445312 7.058594 C 58.503906 7.058594 58.5625 7.058594 58.621094 7.058594 C 58.746094 7.058594 58.867188 7.058594 58.992188 7.058594 C 59.179688 7.058594 59.367188 7.058594 59.554688 7.058594 C 59.675781 7.058594 59.792969 7.058594 59.914062 7.058594 C 60.023438 7.058594 60.132812 7.058594 60.242188 7.058594 C 60.515625 7.070312 60.515625 7.070312 60.773438 7.15625 C 60.867188 7.347656 60.867188 7.347656 60.960938 7.617188 C 60.996094 7.722656 61.035156 7.824219 61.070312 7.933594 C 61.113281 8.050781 61.152344 8.167969 61.191406 8.289062 C 61.234375 8.414062 61.277344 8.539062 61.324219 8.660156 C 61.425781 8.953125 61.523438 9.242188 61.625 9.53125 C 61.835938 10.132812 62.046875 10.734375 62.261719 11.335938 C 62.28125 11.394531 62.300781 11.449219 62.320312 11.507812 C 62.402344 11.738281 62.484375 11.964844 62.566406 12.195312 C 62.707031 12.589844 62.84375 12.988281 62.984375 13.382812 C 63.023438 13.492188 63.0625 13.601562 63.101562 13.710938 C 63.171875 13.914062 63.246094 14.117188 63.316406 14.316406 C 63.347656 14.410156 63.382812 14.503906 63.414062 14.601562 C 63.449219 14.691406 63.480469 14.78125 63.511719 14.875 C 63.585938 15.078125 63.660156 15.28125 63.734375 15.480469 C 63.753906 15.535156 63.773438 15.589844 63.796875 15.644531 C 63.851562 15.796875 63.90625 15.945312 63.964844 16.097656 C 64.042969 16.351562 64.042969 16.351562 64.042969 16.691406 C 63.285156 16.945312 62.394531 17.082031 61.632812 16.777344 C 61.1875 16.460938 61.015625 16.003906 60.859375 15.5 C 60.832031 15.328125 60.800781 15.160156 60.773438 14.988281 C 59.609375 14.988281 58.441406 14.988281 57.242188 14.988281 C 57.1875 15.242188 57.128906 15.492188 57.070312 15.753906 C 57.019531 15.9375 56.964844 16.125 56.910156 16.308594 C 56.882812 16.394531 56.855469 16.480469 56.828125 16.570312 C 56.726562 16.777344 56.726562 16.777344 56.570312 16.832031 C 56.253906 16.882812 55.941406 16.875 55.621094 16.875 C 55.554688 16.878906 55.488281 16.878906 55.417969 16.878906 C 54.988281 16.882812 54.636719 16.828125 54.230469 16.691406 C 54.273438 16.085938 54.457031 15.566406 54.667969 15 C 54.703125 14.902344 54.738281 14.804688 54.777344 14.703125 C 54.875 14.4375 54.972656 14.171875 55.070312 13.90625 C 55.175781 13.632812 55.277344 13.355469 55.378906 13.078125 C 55.523438 12.6875 55.671875 12.292969 55.816406 11.898438 C 56.03125 11.320312 56.242188 10.742188 56.457031 10.164062 C 56.589844 9.796875 56.722656 9.433594 56.859375 9.066406 C 56.921875 8.894531 56.984375 8.726562 57.046875 8.554688 C 57.128906 8.316406 57.21875 8.082031 57.304688 7.847656 C 57.34375 7.742188 57.34375 7.742188 57.378906 7.636719 C 57.441406 7.472656 57.511719 7.3125 57.585938 7.15625 C 57.886719 7.054688 58.128906 7.058594 58.445312 7.058594 Z M 58.964844 9.285156 C 58.855469 9.667969 58.75 10.054688 58.644531 10.441406 C 58.605469 10.574219 58.570312 10.703125 58.535156 10.835938 C 58.480469 11.023438 58.429688 11.214844 58.375 11.402344 C 58.359375 11.460938 58.34375 11.519531 58.328125 11.578125 C 58.210938 12.003906 58.113281 12.425781 58.015625 12.859375 C 58.671875 12.859375 59.324219 12.859375 59.996094 12.859375 C 59.941406 12.46875 59.882812 12.125 59.78125 11.746094 C 59.753906 11.652344 59.730469 11.558594 59.703125 11.460938 C 59.675781 11.363281 59.648438 11.265625 59.621094 11.167969 C 59.59375 11.070312 59.570312 10.972656 59.542969 10.875 C 59.394531 10.335938 59.234375 9.808594 59.050781 9.285156 C 59.023438 9.285156 58.992188 9.285156 58.964844 9.285156 Z M 58.964844 9.285156 " fill-opacity="1" fill-rule="nonzero"/><path fill="#b19666" d="M 2.308594 13.457031 C 2.527344 13.726562 2.683594 14.007812 2.839844 14.320312 C 2.867188 14.371094 2.894531 14.421875 2.921875 14.476562 C 3.007812 14.644531 3.089844 14.816406 3.175781 14.984375 C 3.238281 15.105469 3.296875 15.222656 3.355469 15.34375 C 3.515625 15.65625 3.675781 15.972656 3.832031 16.285156 C 3.992188 16.601562 4.152344 16.917969 4.308594 17.234375 C 4.519531 17.648438 4.726562 18.058594 4.933594 18.472656 C 5.011719 18.628906 5.09375 18.789062 5.171875 18.945312 C 5.273438 19.144531 5.371094 19.34375 5.46875 19.539062 C 5.515625 19.632812 5.5625 19.722656 5.609375 19.816406 C 5.648438 19.898438 5.6875 19.976562 5.730469 20.058594 C 6.480469 21.488281 7.800781 22.441406 9.304688 22.976562 C 12.34375 23.894531 15.4375 23.335938 18.214844 21.902344 C 18.871094 21.550781 19.457031 21.136719 20 20.628906 C 20.132812 20.523438 20.132812 20.523438 20.304688 20.523438 C 20.097656 23.011719 20.097656 23.011719 19.609375 23.648438 C 19.101562 24.039062 18.472656 24.140625 17.84375 24.230469 C 17.738281 24.246094 17.738281 24.246094 17.628906 24.261719 C 13.640625 24.796875 7.503906 25.246094 4.058594 22.800781 C 2.765625 21.789062 2.707031 19.304688 2.527344 17.808594 C 2.359375 16.355469 2.269531 14.917969 2.308594 13.457031 Z M 2.308594 13.457031 " fill-opacity="1" fill-rule="nonzero"/><path fill="#1f4741" d="M 88.066406 7.15625 C 90.710938 7.15625 93.351562 7.15625 96.074219 7.15625 C 96.191406 7.722656 96.25 8.261719 96.058594 8.816406 C 95.8125 9.148438 95.53125 9.292969 95.128906 9.367188 C 94.894531 9.375 94.664062 9.378906 94.433594 9.378906 C 94.371094 9.378906 94.308594 9.378906 94.246094 9.378906 C 93.972656 9.378906 93.753906 9.371094 93.492188 9.285156 C 93.492188 11.757812 93.492188 14.226562 93.492188 16.777344 C 93.179688 16.835938 92.949219 16.871094 92.640625 16.871094 C 92.523438 16.871094 92.523438 16.871094 92.40625 16.871094 C 92.285156 16.871094 92.285156 16.871094 92.164062 16.871094 C 92.082031 16.871094 92.003906 16.871094 91.921875 16.871094 C 91.84375 16.871094 91.765625 16.871094 91.683594 16.871094 C 91.578125 16.871094 91.578125 16.871094 91.472656 16.871094 C 91.222656 16.859375 90.980469 16.816406 90.738281 16.777344 C 90.738281 14.304688 90.738281 11.832031 90.738281 9.285156 C 90.652344 9.3125 90.566406 9.339844 90.476562 9.367188 C 90.300781 9.375 90.125 9.378906 89.949219 9.378906 C 89.792969 9.378906 89.792969 9.378906 89.632812 9.378906 C 89.472656 9.378906 89.472656 9.378906 89.304688 9.378906 C 89.140625 9.378906 89.140625 9.378906 88.976562 9.378906 C 88.871094 9.378906 88.769531 9.378906 88.660156 9.378906 C 88.566406 9.378906 88.472656 9.378906 88.371094 9.378906 C 88.152344 9.367188 88.152344 9.367188 88.066406 9.285156 C 88.042969 9.070312 88.027344 8.859375 88.011719 8.644531 C 88.007812 8.585938 88.003906 8.527344 88 8.46875 C 87.96875 8.007812 88.015625 7.628906 88.066406 7.15625 Z M 88.066406 7.15625 " fill-opacity="1" fill-rule="nonzero"/><path fill="#19423c" d="M 97.714844 7.058594 C 97.816406 7.058594 97.921875 7.058594 98.027344 7.058594 C 98.136719 7.058594 98.246094 7.058594 98.355469 7.058594 C 98.519531 7.058594 98.519531 7.058594 98.6875 7.058594 C 98.789062 7.058594 98.894531 7.058594 99 7.058594 C 99.09375 7.058594 99.191406 7.058594 99.289062 7.058594 C 99.519531 7.070312 99.519531 7.070312 99.691406 7.15625 C 99.691406 10.328125 99.691406 13.503906 99.691406 16.777344 C 99.378906 16.835938 99.148438 16.871094 98.839844 16.871094 C 98.722656 16.871094 98.722656 16.871094 98.601562 16.871094 C 98.519531 16.871094 98.441406 16.871094 98.355469 16.871094 C 98.234375 16.871094 98.234375 16.871094 98.113281 16.871094 C 98.035156 16.871094 97.957031 16.871094 97.875 16.871094 C 97.804688 16.871094 97.734375 16.871094 97.660156 16.871094 C 97.453125 16.859375 97.453125 16.859375 97.023438 16.777344 C 97.023438 13.601562 97.023438 10.425781 97.023438 7.15625 C 97.257812 7.039062 97.449219 7.058594 97.714844 7.058594 Z M 97.714844 7.058594 " fill-opacity="1" fill-rule="nonzero"/><path fill="#19423c" d="M 75.5 7.058594 C 75.601562 7.058594 75.707031 7.058594 75.8125 7.058594 C 75.921875 7.058594 76.03125 7.058594 76.140625 7.058594 C 76.304688 7.058594 76.304688 7.058594 76.472656 7.058594 C 76.574219 7.058594 76.679688 7.058594 76.785156 7.058594 C 76.878906 7.058594 76.976562 7.058594 77.074219 7.058594 C 77.304688 7.070312 77.304688 7.070312 77.476562 7.15625 C 77.476562 10.328125 77.476562 13.503906 77.476562 16.777344 C 77.164062 16.835938 76.933594 16.871094 76.625 16.871094 C 76.507812 16.871094 76.507812 16.871094 76.386719 16.871094 C 76.304688 16.871094 76.226562 16.871094 76.140625 16.871094 C 76.019531 16.871094 76.019531 16.871094 75.898438 16.871094 C 75.820312 16.871094 75.742188 16.871094 75.660156 16.871094 C 75.589844 16.871094 75.519531 16.871094 75.445312 16.871094 C 75.238281 16.859375 75.238281 16.859375 74.808594 16.777344 C 74.808594 13.601562 74.808594 10.425781 74.808594 7.15625 C 75.042969 7.039062 75.234375 7.058594 75.5 7.058594 Z M 75.5 7.058594 " fill-opacity="1" fill-rule="nonzero"/><path fill="#1b1b1b" d="M 31.417969 19.230469 C 31.492188 19.230469 31.566406 19.234375 31.644531 19.234375 C 31.710938 19.238281 31.777344 19.242188 31.84375 19.246094 C 31.898438 19.246094 31.957031 19.246094 32.015625 19.246094 C 32.242188 19.246094 32.472656 19.246094 32.703125 19.246094 C 32.714844 19.617188 32.71875 19.984375 32.726562 20.355469 C 32.730469 20.515625 32.730469 20.515625 32.734375 20.675781 C 32.738281 21.265625 32.734375 21.664062 32.359375 22.140625 C 31.925781 22.464844 31.417969 22.453125 30.894531 22.394531 C 30.695312 22.308594 30.695312 22.308594 30.550781 22.222656 C 30.605469 22.054688 30.664062 21.886719 30.722656 21.714844 C 30.78125 21.722656 30.839844 21.730469 30.902344 21.738281 C 30.980469 21.746094 31.058594 21.757812 31.136719 21.765625 C 31.214844 21.777344 31.289062 21.785156 31.371094 21.796875 C 31.605469 21.820312 31.605469 21.820312 31.84375 21.628906 C 31.84375 21.542969 31.84375 21.460938 31.84375 21.375 C 31.785156 21.402344 31.726562 21.429688 31.667969 21.457031 C 31.054688 21.519531 31.054688 21.519531 30.726562 21.257812 C 30.394531 20.835938 30.421875 20.449219 30.464844 19.925781 C 30.578125 19.671875 30.578125 19.671875 30.722656 19.5 C 30.757812 19.453125 30.796875 19.410156 30.832031 19.363281 C 31.035156 19.203125 31.164062 19.21875 31.417969 19.230469 Z M 31.238281 19.925781 C 31.167969 20.21875 31.125 20.433594 31.21875 20.722656 C 31.324219 20.886719 31.324219 20.886719 31.582031 20.949219 C 31.808594 20.863281 31.90625 20.824219 32.015625 20.605469 C 32.039062 20.320312 32.042969 20.148438 31.902344 19.894531 C 31.648438 19.652344 31.515625 19.746094 31.238281 19.925781 Z M 31.238281 19.925781 " fill-opacity="1" fill-rule="nonzero"/><path fill="#282828" d="M 46.738281 19.246094 C 46.992188 19.246094 47.25 19.246094 47.511719 19.246094 C 47.597656 19.609375 47.683594 19.976562 47.769531 20.351562 C 47.808594 20.230469 47.847656 20.113281 47.890625 19.988281 C 47.976562 19.726562 48.070312 19.488281 48.203125 19.246094 C 48.429688 19.246094 48.65625 19.246094 48.890625 19.246094 C 48.976562 19.582031 49.0625 19.917969 49.148438 20.265625 C 49.171875 20.191406 49.199219 20.117188 49.222656 20.042969 C 49.3125 19.777344 49.402344 19.511719 49.492188 19.246094 C 49.71875 19.246094 49.949219 19.246094 50.183594 19.246094 C 50.082031 19.597656 49.984375 19.949219 49.886719 20.304688 C 49.859375 20.40625 49.828125 20.503906 49.800781 20.609375 C 49.773438 20.703125 49.746094 20.800781 49.71875 20.898438 C 49.695312 20.988281 49.671875 21.078125 49.644531 21.167969 C 49.578125 21.375 49.578125 21.375 49.492188 21.457031 C 49.261719 21.46875 49.035156 21.460938 48.804688 21.457031 C 48.761719 21.335938 48.722656 21.21875 48.679688 21.097656 C 48.65625 21.027344 48.632812 20.960938 48.609375 20.894531 C 48.554688 20.714844 48.507812 20.53125 48.460938 20.351562 C 48.347656 20.714844 48.234375 21.082031 48.117188 21.457031 C 47.859375 21.457031 47.605469 21.457031 47.339844 21.457031 C 47.238281 21.121094 47.140625 20.785156 47.039062 20.445312 C 47.011719 20.351562 46.980469 20.253906 46.953125 20.15625 C 46.925781 20.066406 46.898438 19.972656 46.871094 19.878906 C 46.84375 19.792969 46.820312 19.710938 46.792969 19.621094 C 46.738281 19.414062 46.738281 19.414062 46.738281 19.246094 Z M 46.738281 19.246094 " fill-opacity="1" fill-rule="nonzero"/><path fill="#232323" d="M 38.386719 18.222656 C 38.613281 18.222656 38.839844 18.222656 39.074219 18.222656 C 39.074219 19.289062 39.074219 20.359375 39.074219 21.457031 C 38.730469 21.457031 38.386719 21.457031 38.042969 21.457031 C 37.929688 21.464844 37.820312 21.472656 37.707031 21.480469 C 37.453125 21.476562 37.34375 21.453125 37.105469 21.339844 C 36.832031 21.007812 36.765625 20.691406 36.75 20.265625 C 36.808594 19.90625 36.894531 19.609375 37.164062 19.351562 C 37.394531 19.222656 37.539062 19.21875 37.804688 19.230469 C 37.917969 19.230469 37.917969 19.230469 38.039062 19.234375 C 38.09375 19.238281 38.152344 19.242188 38.214844 19.246094 C 38.222656 19.144531 38.222656 19.144531 38.230469 19.042969 C 38.238281 18.957031 38.242188 18.871094 38.25 18.78125 C 38.257812 18.695312 38.265625 18.609375 38.273438 18.519531 C 38.300781 18.308594 38.300781 18.308594 38.386719 18.222656 Z M 37.675781 19.886719 C 37.507812 20.089844 37.507812 20.089844 37.480469 20.351562 C 37.535156 20.65625 37.628906 20.753906 37.871094 20.949219 C 38.089844 20.855469 38.089844 20.855469 38.300781 20.691406 C 38.386719 20.421875 38.410156 20.257812 38.328125 19.984375 C 38.222656 19.832031 38.222656 19.832031 38.050781 19.753906 C 37.855469 19.738281 37.855469 19.738281 37.675781 19.886719 Z M 37.675781 19.886719 " fill-opacity="1" fill-rule="nonzero"/><path fill="#171717" d="M 52.507812 18.222656 C 52.734375 18.222656 52.960938 18.222656 53.195312 18.222656 C 53.222656 18.617188 53.253906 19.007812 53.28125 19.414062 C 53.339844 19.359375 53.394531 19.300781 53.453125 19.246094 C 53.628906 19.214844 53.628906 19.214844 53.832031 19.210938 C 53.929688 19.210938 53.929688 19.210938 54.03125 19.207031 C 54.230469 19.246094 54.230469 19.246094 54.425781 19.355469 C 54.667969 19.726562 54.609375 20.113281 54.59375 20.542969 C 54.59375 20.628906 54.589844 20.71875 54.589844 20.808594 C 54.585938 21.027344 54.582031 21.242188 54.574219 21.457031 C 54.347656 21.457031 54.117188 21.457031 53.882812 21.457031 C 53.855469 20.953125 53.828125 20.445312 53.796875 19.925781 C 53.683594 19.898438 53.570312 19.871094 53.453125 19.839844 C 53.242188 20.15625 53.242188 20.425781 53.226562 20.792969 C 53.222656 20.890625 53.222656 20.890625 53.21875 20.988281 C 53.210938 21.144531 53.203125 21.300781 53.195312 21.457031 C 52.96875 21.457031 52.742188 21.457031 52.507812 21.457031 C 52.507812 20.390625 52.507812 19.324219 52.507812 18.222656 Z M 52.507812 18.222656 " fill-opacity="1" fill-rule="nonzero"/><path fill="#282828" d="M 39.417969 19.246094 C 39.644531 19.246094 39.875 19.246094 40.109375 19.246094 C 40.113281 19.332031 40.117188 19.421875 40.125 19.515625 C 40.132812 19.632812 40.136719 19.75 40.144531 19.867188 C 40.148438 19.925781 40.152344 19.984375 40.15625 20.046875 C 40.171875 20.304688 40.195312 20.527344 40.28125 20.777344 C 40.367188 20.804688 40.449219 20.832031 40.539062 20.863281 C 40.59375 20.835938 40.652344 20.804688 40.710938 20.777344 C 40.753906 20.019531 40.753906 20.019531 40.796875 19.246094 C 41.050781 19.246094 41.308594 19.246094 41.570312 19.246094 C 41.570312 19.976562 41.570312 20.707031 41.570312 21.457031 C 41.226562 21.457031 40.882812 21.457031 40.539062 21.457031 C 40.425781 21.464844 40.316406 21.46875 40.199219 21.472656 C 39.957031 21.472656 39.859375 21.464844 39.640625 21.347656 C 39.410156 21.101562 39.410156 20.867188 39.410156 20.550781 C 39.410156 20.472656 39.410156 20.398438 39.410156 20.320312 C 39.414062 20.242188 39.414062 20.160156 39.414062 20.082031 C 39.414062 20 39.414062 19.921875 39.414062 19.835938 C 39.414062 19.640625 39.417969 19.441406 39.417969 19.246094 Z M 39.417969 19.246094 " fill-opacity="1" fill-rule="nonzero"/><path fill="#272727" d="M 45.660156 19.210938 C 45.808594 19.210938 45.808594 19.210938 45.953125 19.207031 C 46.273438 19.253906 46.367188 19.339844 46.566406 19.585938 C 46.667969 19.789062 46.660156 19.917969 46.660156 20.144531 C 46.660156 20.222656 46.660156 20.296875 46.660156 20.375 C 46.660156 20.457031 46.65625 20.535156 46.65625 20.617188 C 46.65625 20.699219 46.65625 20.777344 46.65625 20.859375 C 46.65625 21.058594 46.652344 21.257812 46.652344 21.457031 C 46.335938 21.457031 46.019531 21.457031 45.703125 21.457031 C 45.535156 21.46875 45.535156 21.46875 45.367188 21.480469 C 45.105469 21.476562 45.027344 21.464844 44.800781 21.324219 C 44.617188 21.035156 44.617188 20.859375 44.671875 20.523438 C 44.832031 20.277344 44.832031 20.277344 45.101562 20.097656 C 45.390625 20.039062 45.671875 20.015625 45.964844 20.011719 C 45.933594 19.953125 45.90625 19.898438 45.875 19.839844 C 45.398438 19.828125 45.398438 19.828125 44.929688 19.925781 C 44.871094 19.757812 44.816406 19.589844 44.757812 19.414062 C 45.058594 19.230469 45.3125 19.214844 45.660156 19.210938 Z M 45.359375 20.605469 C 45.386719 20.71875 45.417969 20.832031 45.445312 20.949219 C 45.589844 20.917969 45.730469 20.890625 45.875 20.863281 C 45.90625 20.722656 45.933594 20.582031 45.964844 20.4375 C 45.695312 20.4375 45.589844 20.484375 45.359375 20.605469 Z M 45.359375 20.605469 " fill-opacity="1" fill-rule="nonzero"/><path fill="#242424" d="M 51.644531 19.246094 C 51.960938 19.421875 52.046875 19.5 52.164062 19.839844 C 52.167969 19.964844 52.171875 20.09375 52.171875 20.21875 C 52.171875 20.292969 52.171875 20.363281 52.171875 20.4375 C 52.167969 20.511719 52.167969 20.589844 52.167969 20.664062 C 52.167969 20.742188 52.167969 20.816406 52.167969 20.894531 C 52.164062 21.082031 52.164062 21.269531 52.164062 21.457031 C 51.933594 21.457031 51.707031 21.457031 51.472656 21.457031 C 51.445312 21.402344 51.417969 21.347656 51.386719 21.289062 C 51.332031 21.34375 51.273438 21.398438 51.214844 21.457031 C 50.875 21.484375 50.628906 21.496094 50.3125 21.378906 C 50.128906 21.128906 50.128906 20.921875 50.144531 20.621094 C 50.183594 20.4375 50.183594 20.4375 50.347656 20.230469 C 50.6875 20.058594 51.015625 19.988281 51.386719 19.925781 C 51.386719 19.871094 51.386719 19.8125 51.386719 19.753906 C 51.074219 19.8125 50.761719 19.867188 50.441406 19.925781 C 50.382812 19.757812 50.328125 19.589844 50.269531 19.414062 C 50.695312 19.160156 51.160156 19.191406 51.644531 19.246094 Z M 50.871094 20.523438 C 50.84375 20.605469 50.8125 20.691406 50.785156 20.777344 C 50.839844 20.832031 50.898438 20.890625 50.957031 20.949219 C 51.179688 20.921875 51.179688 20.921875 51.386719 20.863281 C 51.414062 20.722656 51.445312 20.582031 51.472656 20.4375 C 51.136719 20.417969 51.136719 20.417969 50.871094 20.523438 Z M 50.871094 20.523438 " fill-opacity="1" fill-rule="nonzero"/><path fill="#1e1e1e" d="M 34.511719 19.246094 C 34.789062 19.398438 34.902344 19.515625 35.054688 19.789062 C 35.113281 20.011719 35.113281 20.011719 35.113281 20.523438 C 34.660156 20.523438 34.203125 20.523438 33.738281 20.523438 C 33.765625 20.605469 33.792969 20.691406 33.824219 20.777344 C 34.203125 20.863281 34.417969 20.867188 34.769531 20.691406 C 34.882812 20.832031 34.996094 20.972656 35.113281 21.117188 C 34.714844 21.460938 34.402344 21.511719 33.875 21.492188 C 33.554688 21.445312 33.371094 21.339844 33.132812 21.117188 C 32.933594 20.785156 32.925781 20.476562 32.960938 20.097656 C 33.246094 19.335938 33.726562 19.117188 34.511719 19.246094 Z M 33.824219 19.753906 C 33.792969 19.867188 33.765625 19.980469 33.738281 20.097656 C 33.964844 20.097656 34.191406 20.097656 34.425781 20.097656 C 34.398438 19.984375 34.367188 19.871094 34.339844 19.753906 C 34.167969 19.753906 34 19.753906 33.824219 19.753906 Z M 33.824219 19.753906 " fill-opacity="1" fill-rule="nonzero"/><path fill="#353535" d="M 25.210938 18.222656 C 25.324219 18.222656 25.4375 18.222656 25.554688 18.222656 C 25.585938 18.617188 25.613281 19.007812 25.644531 19.414062 C 25.726562 19.359375 25.8125 19.300781 25.902344 19.246094 C 26.164062 19.199219 26.410156 19.199219 26.675781 19.246094 C 26.914062 19.429688 27.058594 19.574219 27.191406 19.839844 C 27.242188 20.347656 27.234375 20.769531 26.933594 21.203125 C 26.765625 21.394531 26.65625 21.449219 26.40625 21.480469 C 26.039062 21.488281 25.867188 21.492188 25.554688 21.289062 C 25.554688 21.34375 25.554688 21.398438 25.554688 21.457031 C 25.414062 21.457031 25.273438 21.457031 25.125 21.457031 C 25.125 21.011719 25.121094 20.5625 25.121094 20.117188 C 25.121094 19.964844 25.121094 19.8125 25.121094 19.660156 C 25.117188 19.441406 25.117188 19.222656 25.117188 19.003906 C 25.117188 18.9375 25.117188 18.867188 25.117188 18.796875 C 25.117188 18.632812 25.121094 18.472656 25.125 18.308594 C 25.15625 18.28125 25.183594 18.25 25.210938 18.222656 Z M 25.738281 19.695312 C 25.523438 20.015625 25.523438 20.320312 25.554688 20.691406 C 25.675781 20.957031 25.675781 20.957031 25.902344 21.117188 C 26.222656 21.125 26.414062 21.101562 26.671875 20.90625 C 26.8125 20.578125 26.808594 20.273438 26.761719 19.925781 C 26.6875 19.699219 26.6875 19.699219 26.503906 19.585938 C 26.097656 19.535156 26.097656 19.535156 25.738281 19.695312 Z M 25.738281 19.695312 " fill-opacity="1" fill-rule="nonzero"/><path fill="#242424" d="M 43.851562 19.21875 C 43.9375 19.214844 44.019531 19.214844 44.105469 19.214844 C 44.355469 19.25 44.429688 19.304688 44.585938 19.5 C 44.5 19.671875 44.5 19.671875 44.328125 19.839844 C 44.089844 19.871094 43.878906 19.855469 43.636719 19.839844 C 43.683594 19.863281 43.730469 19.886719 43.777344 19.910156 C 43.84375 19.941406 43.914062 19.976562 43.984375 20.011719 C 44.074219 20.054688 44.164062 20.09375 44.257812 20.136719 C 44.5 20.265625 44.5 20.265625 44.585938 20.4375 C 44.636719 20.96875 44.636719 20.96875 44.425781 21.234375 C 44.148438 21.441406 43.992188 21.472656 43.648438 21.472656 C 43.539062 21.476562 43.539062 21.476562 43.421875 21.476562 C 43.195312 21.457031 43.058594 21.402344 42.863281 21.289062 C 42.890625 21.148438 42.921875 21.007812 42.949219 20.863281 C 43.277344 20.746094 43.558594 20.804688 43.898438 20.863281 C 43.710938 20.679688 43.625 20.65625 43.378906 20.589844 C 43.070312 20.480469 43.046875 20.460938 42.890625 20.148438 C 42.859375 19.796875 42.894531 19.683594 43.121094 19.414062 C 43.410156 19.226562 43.515625 19.21875 43.851562 19.21875 Z M 43.851562 19.21875 " fill-opacity="1" fill-rule="nonzero"/><path fill="#3a3a3a" d="M 27.277344 19.246094 C 27.421875 19.246094 27.5625 19.246094 27.710938 19.246094 C 27.90625 19.75 28.105469 20.257812 28.3125 20.777344 C 28.511719 20.269531 28.710938 19.765625 28.914062 19.246094 C 29.054688 19.246094 29.199219 19.246094 29.34375 19.246094 C 29.140625 19.875 28.90625 20.492188 28.660156 21.105469 C 28.625 21.203125 28.585938 21.300781 28.550781 21.398438 C 28.511719 21.488281 28.476562 21.582031 28.4375 21.675781 C 28.40625 21.757812 28.375 21.839844 28.339844 21.925781 C 28.214844 22.160156 28.113281 22.265625 27.882812 22.394531 C 27.601562 22.410156 27.601562 22.410156 27.363281 22.394531 C 27.363281 22.28125 27.363281 22.171875 27.363281 22.054688 C 27.433594 22.03125 27.5 22.011719 27.570312 21.992188 C 27.796875 21.902344 27.796875 21.902344 27.914062 21.734375 C 28.054688 21.230469 27.765625 20.710938 27.574219 20.25 C 27.519531 20.113281 27.460938 19.976562 27.40625 19.84375 C 27.382812 19.78125 27.359375 19.722656 27.332031 19.660156 C 27.277344 19.5 27.277344 19.5 27.277344 19.246094 Z M 27.277344 19.246094 " fill-opacity="1" fill-rule="nonzero"/><path fill="#2d2d2d" d="M 35.285156 19.246094 C 35.773438 19.246094 36.261719 19.246094 36.75 19.246094 C 36.75 19.441406 36.75 19.636719 36.75 19.839844 C 36.550781 19.867188 36.351562 19.898438 36.148438 19.925781 C 36.117188 20.429688 36.089844 20.9375 36.0625 21.457031 C 35.804688 21.457031 35.550781 21.457031 35.285156 21.457031 C 35.285156 20.726562 35.285156 19.996094 35.285156 19.246094 Z M 35.285156 19.246094 " fill-opacity="1" fill-rule="nonzero"/><path fill="#4d4d4d" d="M 25.210938 18.222656 C 25.324219 18.222656 25.4375 18.222656 25.554688 18.222656 C 25.585938 18.617188 25.613281 19.007812 25.644531 19.414062 C 25.726562 19.359375 25.8125 19.300781 25.902344 19.246094 C 26.089844 19.277344 26.089844 19.277344 26.246094 19.328125 C 26.160156 19.359375 26.074219 19.386719 25.988281 19.414062 C 26.101562 19.472656 26.214844 19.527344 26.332031 19.585938 C 25.761719 19.765625 25.761719 19.765625 25.46875 19.671875 C 25.46875 19.222656 25.46875 18.769531 25.46875 18.308594 C 25.386719 18.28125 25.300781 18.25 25.210938 18.222656 Z M 25.210938 18.222656 " fill-opacity="1" fill-rule="nonzero"/><path fill="#dcc9a4" d="M 2.308594 13.457031 C 2.566406 13.796875 2.566406 13.796875 2.566406 13.964844 C 2.511719 13.964844 2.453125 13.964844 2.394531 13.964844 C 2.394531 14.445312 2.394531 14.921875 2.394531 15.414062 C 2.367188 15.414062 2.339844 15.414062 2.308594 15.414062 C 2.308594 14.765625 2.308594 14.121094 2.308594 13.457031 Z M 2.308594 13.457031 " fill-opacity="1" fill-rule="nonzero"/></svg>